<mxfile host="app.diagrams.net" agent="Mozilla/5.0 (Macintosh; Intel Mac OS X 10_15_7) AppleWebKit/537.36 (KHTML, like Gecko) Chrome/133.0.0.0 Safari/537.36" version="26.0.16">
  <diagram name="Exercise #1" id="W-CMCDUThwzxh5sSqas5">
    <mxGraphModel dx="1026" dy="684" grid="1" gridSize="10" guides="1" tooltips="1" connect="1" arrows="1" fold="1" page="1" pageScale="1" pageWidth="850" pageHeight="1100" math="0" shadow="0">
      <root>
        <mxCell id="0" />
        <mxCell id="1" parent="0" />
        <mxCell id="9tq8JULYqyt8hH6mYVxF-1" value="" style="shape=image;verticalLabelPosition=bottom;labelBackgroundColor=default;verticalAlign=top;aspect=fixed;imageAspect=0;image=data:image/png,iVBORw0KGgoAAAANSUhEUgAAAtIAAAGDCAYAAAAGUPdlAAABWmlDQ1BJQ0MgUHJvZmlsZQAAKJF1kLtKA1EQhv/ciOgWgpYWaSyEVUK8FFaJEWMgxRINXkBwcxI3wu563GyQoA9hpS8QfACbpLCws7ETFMRGOztBWBANxzlZNYniOQzz8fPPMDNAcEDn3AwDsGzXyWcWYusbm7HoM0L0RzCHsM6qPKVpObLgO/c/7xYBmW8mZa+32mOy3rhInp9GlKd48/Cvv+8NlspVRvmDIs644wIBlVg7cLnkI+JRh4YiPpZs+NyQXPS51fGs5tPE18TDrKKXiB+I1WKPbvSwZdbY1wxyeqVsF1ZkH4ox5JBBDEsoEOWIlrH4j3+m409jDxx1ONiFgQpcqkmRwmGiTJyFDYYpqMQJxClm5Z1/36+r7dNe81kgaHW1bQ1ovcj1uto43Uq5Ai63uO7oP1cNeOHqznTC56EmEDkR4nUNiE4A7Tsh3ptCtM+A0D3Vep8m8mM4O5yDQgAAAFZlWElmTU0AKgAAAAgAAYdpAAQAAAABAAAAGgAAAAAAA5KGAAcAAAASAAAARKACAAQAAAABAAAC0qADAAQAAAABAAABgwAAAABBU0NJSQAAAFNjcmVlbnNob3SJKwGbAAAB1mlUWHRYTUw6Y29tLmFkb2JlLnhtcAAAAAAAPHg6eG1wbWV0YSB4bWxuczp4PSJhZG9iZTpuczptZXRhLyIgeDp4bXB0az0iWE1QIENvcmUgNi4wLjAiPgogICA8cmRmOlJERiB4bWxuczpyZGY9Imh0dHA6Ly93d3cudzMub3JnLzE5OTkvMDIvMjItcmRmLXN5bnRheC1ucyMiPgogICAgICA8cmRmOkRlc2NyaXB0aW9uIHJkZjphYm91dD0iIgogICAgICAgICAgICB4bWxuczpleGlmPSJodHRwOi8vbnMuYWRvYmUuY29tL2V4aWYvMS4wLyI+CiAgICAgICAgIDxleGlmOlBpeGVsWURpbWVuc2lvbj4zODc8L2V4aWY6UGl4ZWxZRGltZW5zaW9uPgogICAgICAgICA8ZXhpZjpQaXhlbFhEaW1lbnNpb24+NzIyPC9leGlmOlBpeGVsWERpbWVuc2lvbj4KICAgICAgICAgPGV4aWY6VXNlckNvbW1lbnQ+U2NyZWVuc2hvdDwvZXhpZjpVc2VyQ29tbWVudD4KICAgICAgPC9yZGY6RGVzY3JpcHRpb24+CiAgIDwvcmRmOlJERj4KPC94OnhtcG1ldGE+Ck6st2YAAEAASURBVHgB7J0F3H1F8f+XbpCShi+S0h3+pbtTuhRJpQQV6ZAUaUFpSUFSQhAQBJSSBkVBv6KEkiKIgf7uf94jc9i7z4m997lPfmder3tP7c7OfnZ3ds7u7J7xWkLByRFwBBwBR8ARcAQcAUfAEXAEOkJg/I5Ce2BHwBFwBBwBR8ARcAQcAUfAEVAE3JD2iuAIOAKOgCPgCDgCjoAj4Ah0gYAb0l2A5lEcAUfAEXAEHAFHwBFwBBwBN6S9DjgCjoAj4Ag4Ao6AI+AIOAJdIOCGdBegeRRHwBFwBBwBR8ARcAQcAUfADWmvA46AI+AIOAKOgCPgCDgCjkAXCLgh3QVoHsURcAQcAUfAEXAEHAFHwBGYsBMIbr/99k6Ce1hHwBFwBBwBR8ARcAQcAUdgRCKw7rrrNso9XicfZBlvvPHCCius0MjUAzgCjoAj4Ag4Ao6AI+AIOAIjFYGHHnoo5HyzMHtEmtFojOgHH3xwpGLicjsCjoAj4Ag4Ao6AI+AIOAKNCDB4nEPuI52DkodxBBwBR8ARcAQcAUfAEXAEEgTckE4A8UtHwBFwBBwBR8ARcAQcAUcgB4FRZUj/8Ic/DD/72c9y8u1hhiECf/vb38JFF10Uvv3tb4ff//73PZHwpz/9afjJT37SNa9//vOf4Xvf+1544YUXuuYxrkZsao9/+MMfwne/+93w97//fVyFKPS3fvYHuJy6PZLLKCd//cFvOMb9xS9+ofrzBz/4wXAUz2XqEIErrrgiPP300x3G+jj4O++8E77//e+HN9544+ObI+zs17/+dbj00kuzfJWHLGssNsyhH//4xy3xkc4JWhtGjKTWgQceWBum24ef+tSnWp/73Oe6je7xBhEBUfQtyuuZZ57RVP/v//6vtfjii7ekIbRmnXXW1te+9jWtJ9z773//27Vkq666amuZZZbpOv4f//hHlek73/lO1zwGImKK30Ck0V+eTe1RFLxi+6tf/aq/SXUVXzqX1pe//OXW7rvv3lX8XkTqb/3sjww5dXuoyog2L0aE6vOVV1659fnPf771xBNPdJTdnPx1xHAQA9NHdqr75MVV29MnP/lJPcqLxCBK3H1Sn/3sZ1tf+tKXumeQEfO3v/1t69Of/nTrkksuyQg9fILQHx500EFdCyQDi1oXbrnllq55DHXEo446SvMgAy4qSjdto9s8gH8ODfqINKOD1157bb9eHBhpWGKJJfRNq1+Mhknk008/PSy33HI9lWYgePZSwH/9619t7J577rnw1FNPhVNPPTW88sor4Zvf/OY4PVLZBk7JRYpfSRC/VYMAIz0LL7xwOPvss4N0MjUh/dFQIHDWWWeF7bffPowdOzZMOOGE4eKLLw5LLrlkeP755wdVnKq+ZqD1azezNIxCixEd5AUi/Pvf/w6TTDLJoGLVlNjPf/7zsOiiiwZGGI3ESAlg/J///MduDchRBmqC68wBgXbQmXbTNgZayOxdOwZakE74y2iFGl0YXKOB/vSnP4VHH320p1kZCJ69FHCnnXYK/Iz+8pe/6CnGDTTRRBOFc889V8/9ry8CKX59Q/idKgSeffbZsMMOO4R9991Xp01ltKoqqN8fIgSWXXbZgOH1mc98RiXA3UtG5sI111wTjjjiiEGTqqqvGWj92o3uQ4fKLNCwM6CtsHAzoO399a9/tVuBXRF63fcVzKOTBRZYIPzud7+L7vjpSEWgm7Yx0Hkd9BHpNEOrrLJKOPbYY8Nee+0VPvGJT4SZZpqpVlHiU7jYYospm5NPPjnMM8884ZhjjinY/uMf/wgyTVTJi7f1jTbaSJ+T3mabbRb+/Oc/F/HLTniDXmuttYo4X/jCF8IHH3ygQV977bWw1VZbqdwoBTqAO+64o2Bz0003hTFjxqif7lJLLaWKY8UVVyzeykn/wgsv1PDkZf755y8UzX333acj1fCFBx0JIw0Qm4TDz97O8KMizHnnnad5quKpkaM/lBgykwZ4nHjiifr09ddfV36M3K2xxhr6HPnOP//8KHYI55xzTlhooYX0OUd8nGNitI/ZA/jPNttsgTKDwIXrl156SX36zKiWKVwtU3D9xje+0Wekvi49Rh2IA1/yQjkZPrFM8TnluP/++2teTUZxK+njj/Xiiy8WOFBGaT7Zb5K6TLr81l9//cKvmvrGs5jEVUrlfOyxx/R2XVnH8ew8xo97Bx98cNhiiy3CmWeeqXlBBurle++9Z1H6HHPK2Oov9cryxggSBAZWtmOk7u2xxx590nv//ffDrrvuquVP2wZrjJMqqitfkwXsGNmivFZbbTWdwTj88MNVPtL46le/2qf84vTmnXfeQHmeccYZYcopp4wfVZ431ROTjRm3snYO427qZ04ZUfboEXFTUUzWWWcdzQe64utf/7q2J7CifWKQMgoYU1PdjsNyPhhlhAFtRjRp2vcLmtozYVNqyl9Vfqr6mm51tpUlbRRdSpnQ7sso1X11/STljE564IEHAnoI3tQJKLd/Stu36RNmCNGnyEr7xtcWvcL1GGnz9A9GrGsR10pthzxHDntOv4IegLbcckt9ZmtXaMP77befsWmU2WTrRtddffXVmg5lsckmmxSyUqZVZOXGiD/9LnkD7xtuuKEtSpMOb7I9eNEAG/Rs3FfGiTSlwawu9gUyoiNjWyTmE59X6Q9sKQYbrPzhS/0ywm6iz0FeK2/K/Mgjj9Qg4g5Z6GnCEPbNN9/UZ4ZpWVu48sorC5sC2yNdL9VJ2zBZ8ROnzJCT/CAn1yaPhev6mOP/QZhe+UiLkm/NNddcRbL4UYrwrfnmm68lRlYLn0GupQIUYeIT/N5k2l/DwOuUU05piQLRIE28ZGpH/XIJd/nll7ek821NM800tb7fYgiozy4y4at03HHHtfBBw/fI+MHjpJNOasmbkvphEVYMJJXJfAy5t9tuu7XkpUFlN39zGWFp4QPIc/Jy2mmntUQxtvAb5d6aa67ZwvdNlJBeS8eofK+77jq9xl8I/2L44Vv87rvvtqp4xjjaOVjIlGlL9glvycKvwh8LnEmfHzjjI2w+zLKgRaPLIjx9jp+pKMzW6quvrtfwgsRI12vkomylUeo1zwwX8vnII4+onypp4a8qyrsljVj9IsHaqCk9ygAe0mBbori1nnFd5yMto14ajrhgus022ygPzqEYh/XWW09xWGSRRTSM7KmuYays8MEDQ9KmTpBv6fhbhxxyiIaPfTzx5SeMGGiNZa2JJH8xfjzCh5S8wvOwww7Tusa1KMkk5seXcd6qytjSgRf1d88992yJId2ysthggw1aYlCrrzFhNt544yIBa4/gQv3ZcMMNVUbwgYy3+Ugbz6r6ZOFJB59K6j7n5Jl6QtsiH9y7+eabCznqTpCJcmqipnoSy1bWzuHfTf3MKaO47ClvfAohq8u0O3mxLrChfUEx76q6bfkayjJC1hNOOEHL9aqrruIyi3LyV1fniF/W11TpV9MDVTo7locw9CePP/54aV4o01j3WVuq6ifF1UT12FzSt9KP3H333V31T9a+4zpFfaKdW1tD/5EGsnCPtQYQWMnLj+oGMKJf4bkYXC36DONJ+ya+DKJoPPJma5ty+lTj042us7UuMsiiegM56V/pM6ooLjf6OPpocCZvb7/9tkZrKnvLF3mtsj1Md9HH84M/P+oJ1JQGfQ11hh/97Y477ljwqPORjvEs0x+sawM3yhvMrbzRnaRF32/tk74WXQnx7Ctf+Yr2q0cffbTKQtlDMaZxW6BPJc/UHdLFf95wIH8Q8sLbqKltmB0CHpQ1dRSe1FfKpY4Il0N5oYTTQBrSFJAVzssvv6yZxMitIoxbMohRGxOA1vGSlZ8aDyPYiIoDLxm1sFttxwsuuECf06EYydSUGrssXCAuhWMkq9z13s4776y3rCNC0RmZUSx+YXqLypYWmDV08mokI8dtnT5GC/EwKjia8Uf4Mp7Gx44Y4MTbeuut7VZxtIqOgiMcxIINwu+99956Dd68+BhhxPN8u+2201vi46jX8DKycjZcrIOW0QkNe+edd1rQ0gZTlx7yoORN3ldffVXxqjOki8Q+OrG6hTEKxTh8FKQlfpoqqy2QoazJN3XXyPJHHTEFaC9BKATCyyi8Bs8pa+NrR+Nv+JkyRGkY0RZ4SauiOG+GWVrGlg6LP2OiI4mx5pnJEHeQyEC9gHhBtHhcG2/LQ1N9svAyikF0JcoWLGUkRq+pX1yn8n4UvM8h15BOI6b1xGSra+fd1M+cMjLcb7vttkJM8S1WHKyO8oAFfJQHZQDFvPWG/KV12/I1lGVEmdJxgh8v2LmUk7+mOmflnPY1Zfq1qR2bPHTktIU6KjMW6vo2eMGXn1En/VPaXqxO/fKXv1R2pttp89ae6fdoa9gGZYTxxnOMeoiXW65tIMbiUAZmSOfIbLJ1o+vMkF577bW1PplxZrKUHa3cMLZpQ9Bll13Wlremsm+yPdCZYBO313vvvVfvmSHdlIa11dgesYV6OYZ0rD8sz/ZSTp4Z3ERGmb3gUo1qmUnQc/6oexjAVYSuxjCGjH/aFqxsZSZFw9FOKCvStbLqtG3w0kZ8q7fYGFznDLYQLoeGhY8008MzzDCDyBx02J0j0xzdUB0v6QyUJVMPLGCBzK0DFwOG+1OyxS3x1Ly8lWkw2XFCj0zjG0knFWQErpjWt/tSGew0iELUc3zFpp9++uJ+fIKsUvBh0003LW4jI1MiYvSE8ccfXxdKsd2fKIcgIwZh8803L8LmnDDNIaNn6q6Bn+g+++yjfssTTDBBEV0MV50O4QZyS4em7hhM7zPlwhG3l5jEoNTL3/zmNwE85phjjuKxlXNxI/OkKb0PP/xQ5WEqinxBs8wyi07fSGdYm4o06sB0ElPAbMEHkV5M4GCEvx04sDUYxEJJURJF3eUeU4AQuIqhrQulRMGp68ytt96qz+QNWY85Za0BG/6QCTmMpINStwe7rjpWlXEcfpdddikuRaFpHRAFX2DNQxlR0UVh5HnOOefU8LTHqaeeWs/xe2dRrU3p6s2P/prKNw4rIxjF5dxzz63TzebuRf2ifVo5FgF7cJJTT6raORjQXrqpn4jeVEaUvYwqF7nEFxWK76EzZERNt3OkvRjB2yit23af41CUEXLKi77qPRk9DJNOOmksUtZ5Vf46yU9OQk3t2HiwiJK20CnV9W1lvDrpn+L2bbyoU0svvbReUn+5xm3J2vMYce2A4raGewn6jfVLtoYJF4FcypW5W11ncrBGAndC+jTcSmWkVF0U7HnZkbZDG4JwD4NkRFqPTWXPc6jK9tCH8ocrg1Fsc3CvKQ3bojXuj3GbEWPYWFYeU/1hC0LZGIIyhcSo1SPrAyBsF1xN6A9YLEp5y4uWPuMPt0KZQdL1bG+99ZYugrV+wQKlbYE8yMx3mHnmmTUI7USM7dI+w3hwrGsbZnPgZiqDfMHqGPZBr2jCXjHqJR8zVHvBM+Ylw/jKkg5/4oknLthjOOInXEZmhMn0b5/HVCAoVYpUKmtwfSLJjdhQLXvOPWRNKzed4rTTTlvwNoPRwlfxqrsvU5vqv4u/qLzxBnzI+Bx8HZGudcQYa3FnzbkZNeCDP1IvqCk9a+RpWTSl/eSTTwY6WpQCvsyzzz57U5TiueFPPimXmOyZHVEYGJ74mIEx9QnFDOWUdcw799xeFnPDx+FM7viendv6gBRreXPXIHVxq9pFU/la2umxil8arr/X3dSTuJ13Wz/r5K7D2coo1nPwsjKq48uzMt6DXUbIil8tvsr446eGRVMe6p6Tv27zU8V3oNpxVXpx31YWptv+qYyX3YvrRdr2WD8jrnlBRh3V+OlG/3Qrc6dpMYjBwBlrBlhfwQI2/IvN6LL8Vh1T3ddU9jyHqmwPBsSglK/e/OivKQ17YanjEfOrOzdevEhZf054/MoZtIN4CcEHm3UmVhdlJlefUY7LL798kFlh9anHH1lmEPRZ3R8vt72Q3+QhLdvAgD74gAMO0JdymQEpXhLr5Ml9NiwN6Vzh6xZSlfFg9ApCIeM4n0P21i1TXEUcOkUUCkYkJH49QabQ9ZyV07xV2bXebPgz5URDsS2L4M0IFm/Lk002WSkHnkHi16YfthBfJd0yintlPLmfEuGoYPzgxwcyYgd8ezMlHiOwtkhgqqmmUkN/8sknDzLNmbLVa94+MRxplJYHGtgUU0xRGr7uZk56NB5bvAcvjAlGEaebbrpK1oxEM/LPaDRKlNF+8efqE95mJngAT8OBa8qKt/Y4b/fffz+PwoILLqhH3oQxpDEIxAVHMbOOKKeslckA/VWVcVVyM844oypO6n1MfAwCYlTTSFwMdCTDDDqUaTxDYeFyytfCDsUxt55UyUad76Z+Gr9Oy8h0E2USj1A9/PDDWl/jzqqublv6HAe7jJghkyn0IL7lQaZzY1E6Oq/KXyf5SfuaMv061O04BcXqQH/7p5Rv1TULFhmRZJQSfNCBbFuYUopl/HwwZWakkx8zHcx63HPPPbpYMpYn97yp7JtsD9OJ9F/ibqbJMqMbU1MaNgiErWL2R1z3Y15N5zY7jwFc1r9jI2BE0zYZLMNuYUDKXkR4MUBngS1GK8QuPPHsRZkM5OHGG29ssxm6zYPxF5cXnRnniE1Fn5xr/xmPpuP4TQGG43PrlFgpL349WkA5crLamM6MUQ5GXSno66+/Xl0aquJbJSAOUwMYqygLGt22226r0VDyrOAV35vCvYIp3FxipwGIHS2oeBjq8MTAwwBDETJVi6LiDRpiygV5mLZhT1MaGRXeXGLKeGrE6A8jRxYk6dcgmTbCmITitzn22cXAJi2MbQhXBYipMabpeaNnxA4jSRz4tUx4Dj7kgWm0u+66S2Wn0dnoHGE6oab0WBUsfmW6CwxlUbbiN02PFwGIRoYC4o27jNjXFhyYtkxxYFqUfJK++APqiDNGAKPOrMKGmEbCJcF2PQETo6aytnADdawr46o0GdEBa14O6DDFDy2AERiYQicumDJLQVtl1T+KjHIso6byLYvTzT1GIqnPyIRrFy9AnJvLTRnP3HpSFtfudVM/LW6nZcRIElOk6AdejjFuGC1k1C3tGOvqtqVvx8EqI/QcLmvoWnQZ7ZMfLzRG7EKSM0pdl7+m/FT1NWX6dajbseFix171T8av6cjIJP0Uuhc9SJ8Zk03X04/R/uh/UhosmdHL9KG4odngS3+m+pvKvsn2YNSXPlwWMmodxw6wGUvDqCkNc+0UP2s1crEn0LndEKO4uAnCg5ch7ANmhth1CRdT2gUz5scff7y6mDKzzTPkhngOYRRjG8iCe42vN2v+LA/YGBjjzJKzW0p/CPdSZMaNlS8kIrOsVypcj/rDu4ib40hNmF4tNmT1r1SYIlnOWV0ekxhyusNDfC89t9XUkhFd4crzHF44mhOOePaTwkvZt12zyhaZLDyrTG3RHLhIQRXPOI+d2G1RgrxdFjxZjQovMXr1HovUYh7y1qb3WR0cp8u57XjATgPsomELFpEDnrZopIpnIYSckAd2VLB8ScNo8cU8SEZd9T4riU0GjtKh63P+WIjDDgUWnyNy2Y4rLMwQQ6vtuS1UTHFhQQrxbWEK/EURty2ubEqP/LC4zuRhIRl1i0WaVUQcFkFYHBY2UBYxjjxjtbHhwHW84A3e7MgQP2cXFXlRa0vW8izGQdt9LurKuk9guWG8rF6lWBGH/FNHqiinjNN0jBd1lFXQhhtHsGYhrhHtTDqstjomnUGxUjrl3VS+aXjSkRfNNn3CPcrBVodznZLMrLTJHedBZk/S4HrdVE/KZEvbeTf1M6eMysoeocVIKFaok0dwQW/agil0BPfr6naar8Eqo7RuxWUkL+JaJuTHFi/pjeQvJ39N+YFlWV9TpV/r2rHJw04hTZSWaU7fBhbov5i66Z+In6bPPXQ77deIXYgoF1vcxm4NhLGysr7BFrGxoNkWjhEG2aA0b00yl8nWpOtS7OWltpATWUzfW97iYxqXZ+y2QjwZiCuC1pU9gZpsDxl0aLMDkIn+OZatKQ1257F+iP6cxZXIaWVQCBudlOHJY9l3u9hFDR786E9YxI/+F9cOXXDOxhDiMlHs6kV9oKzFGC4wJqy8GBR9cRmmpIluwkaw9Ogr4c81O1xBqbxp/SEMGLBbERTvzMPmEvRT8CvrhzVC9Ee4HMoLJZyo3LZlWw7jqjAYfqYICSPuDIUxaHHET6ZQ9nav7CijgGrw2bNOeLFtjYyO6VZeFr/uSMWQt5piu5s0LJ0kv5SIZxXAnnEv7bCpQHSaKPaUqHQ8sw6Q58Q3I9rCp/fqeFocjqyQJW8xP+vAaYiUx1jZBSBOP45PPJ6LW0t8uzinvME6xqEMFxkZLOJwAl/STqkpPZl2KlboEpZ60URs0WRbGRE+zqvJbTjAs4zIU1UZWnh4VcUnTFlZW9z4mOIHzxQrcK/Le04Zp+nEMnBOGhimcZu2MIYjPMZK/TAc7XkVb/JC+LQ+lYUvyyM41GFs6XdzrKonZbJxL23npNlJ/cwpo7Kyj/OGToFPGVmZVNXtsnzBZ6jLyHaAiA2ZbvJncaryY8/Tvob7dfq1qh2DN5g2UVqmtCXuxUSZxXqKtlDWDonTSf9E+DR97pW1qzKdTV9CWKis/tOG4r6yLG/ErZK5TLYyPQCPmFLseenHWCyTMY7HeRrX7qXhuK4qewvbZHsQ38rRdKjFtWNdGlYvLWxT/srwtLgcyTs40QaMbHeVeOcU9DWGp+zzbMF0YAVZIdKxfHFdhin3IWSmnhjFeUjlLas/cduYSwbGZFbUWOnRXvKIW0e5hvR4MJHAjYQrBL6jqV9kY0QPMCIRYGUuPs5Mr8ob4ojMgwtdj4CXcT0+w+Gpl1F5KbD7y5gxY4qp5PJQftcRcAQGAgEZWNWPjuF+gqsjrhwXiwsIftO4ka200koDkWxXPNEV5nbKjmq4sOLewQYTuCHVEb7+OSbyiF5sWAeAP+sfAiwOwwfKtjrqHzePPRwR8DIejqXSLpOXUTsediXT3SHeatDu+9ERcAQGHgHWvbBugy8os+aCLxeyQFFmioaVEQ0SbMF36KGH6kJ/mZ1Tu0bcQ4LtMNILtHxEuhcoOg9HwBFwBBwBR8ARcAQcgVGDQO6I9IjctWPUlJJnxBFwBBwBR8ARcAQcAUdgxCLghvSILToX3BFwBBwBR8ARcAQcAUdgKBFwQ3oo0fe0HQFHwBFwBBwBR8ARcARGLAJuSI/YonPBHQFHwBFwBBwBR8ARcASGEgE3pIcSfU/bEXAEHAFHwBFwBBwBR2DEIjBohrR87UY/+TgckBpOsuTiMRgyy5ep9BPouTKNy+Fkw/fAZ1FfeOGFAYdhMMq+KRN8HpbPwY908jqeV4Ly5TLdLopPdfNZ915SXJ8Hsx31Mg/OyxFIEbjiiivC008/nd6uvZaPWYXvfve7QT5sUxvOHw5zBOq+6hI/6++XDfmM4+c+97mY5ZCd90KWAw88UD+JGX9ZaiAz1CQzn/YmzDPPPNO1GHz+lc+KOjUjEH9xrjl0/0I0lX3/uOfFXnXVVfVT6lWh+Tzxl770parHw+b+cK3jfGXtqKOOaq2zzjr6KV3Z97Tt628DCWCqO/jyHp8Clq5LP/nMJ4p7qe/i+tzrdpTmJRe3butvL3HJldXDDU8EaC8HHXRQR8J9//vf13b2q1/9qqN4HnhwEKBMc6jnI9KMMCyxxBJBKsgwf4XIF48v93z5y19uizDc3iDlU5dt8g3Vxemnnx74kpDTuIOAKJpAu5dPtxaZLmszxcNBOBlJekgM17DuuusGMaTDZJNNph9BOu6448K55547CEiFkOqO5557Ljz11FPh1FNPDa+88kr45je/OWJGzNK8MAOx6KKLhl//+teVWJbV38rAyYPh1g8k4mm7HIj+OLd95eCfyjxar71vbC7ZkYpRz79sKCO0qoRRwKOFUMIzzjhjW3YGq5NrS7TmYqeddgr8hpr4pDGf43QadxBg0/q0zMvazGAiMpL0kIxGhYceekgN6SOPPFJheuONN8J77703KJCluuMvf/mLprvwwgvrcaKJJho0o76/GU7z8s4774Rnn302yIh/Jeuy+lsZOHkw3PqBRLwwUO0gl28O/qnMo/Xa+8bmkh2pGPV0RBo/ysUWW0zROvnkk/WTkcccc0yB3j/+8Y8g07/6OcmZZpopHHHEEcUzTmSaL2y00Ub6nE9ObrbZZuHPf/5zW5j4YpVVVgnf+MY3wmqrrRZQhoziQJ3w+eCDD8L+++8fxowZozxmm222wOdnGaVgtGH++ecPTzzxhPqH8gnMDTfcUNMg3Xjk9d///nf4+te/rnlGloUWWijgXwgf6PXXX9c0ZOpRR58IA+8bbrhBn1uYTTbZRPPPc/IfUx1+N910U0D2l156SaMgyzbbbBMoB7AGT2Sng26ib33rW0UcyuPNN98soiDDvvvuq2kh44orrqhGAAGQl0+GQmBF/ujEkAs/MKOLLrpI7zHqZYS8jBwZ3XfffYovaYyRspEpswDGRnVlnIO18bFjXT2wMGXHF198Mayxxhpad8gveYsJA4l6Cv781l9//T5+1cRh1Mjyuscee1QaUXRMK620koaP07Fz/FnFhaqoQ5QDvntG1BPwxN95qaWW0jQpw3jEjhFS6jflhsxf+MIXGkckaYP77bdfbZvB2F522WU1TfieeOKJJlaf43e+8x2tD2BC2C222KKtHtL2qDMxkVfqe5MeIs5ZZ52lOMB7q622asP7tdde03u0G9JH5jvuuKNIyjA877zzVDZ4MELXSf4KZnJio6hx2+TFXVwgNJjVZ8rR6hp5Pf/882M24ZxzzlG9g8zon7Qu3nLLLUU9o2zBCop1BzrLXsjFDUbbMXik+g5DivJDDtKj7Yr7n/JrKjsNVPJHm0euWCcSbK211lJdVhKlz604L8jHp4ChLbfcUmWt8vO3+ktY6j+fPY7LH31TRikuBx98sNZVRvPJC9jQnilb6hnXY6T9xW0yR1fn9i9nnnlmUSZnnHFGZX/cVEborGOPPTbstddeWsfj/jqnfYFVHf5NbSzF2tpAnD/qC9TUV6DbqEO0U37oM/Q91CQH5Um/xow0ZSeuVxoPPUydgl/clvRhyV9Z3xi/3P3sZz+r1Mewa2rbcZKmn2iP6AHkRofRF8VUx9N4pDqurt3DO4dnVd9ThVFT34xM2AfW3mhf6CVm+Yzq5LIw/TqKoZdFOT7SomxaMg2oPj/4+p1yyimtBx54QPnjFyeCtuabb76WKPAWPpdcSwelz6UzUR9fwl1++eWtww8/vDXNNNO0VlhhhUr5jCdHfApFObVy+BDe/LVl6qk111xztU466aTWdddd1xLjU+XiXAqoddppp6mfIHKTH3zwoNTX0uKJkdkSY1J9HcmfKFQNDzZc81t99dWVL+ly/fbbb2sYaeCa52uuuaYlC3JaYjzoff4sr1X4pb5WyAdvMDzhhBPUd4vrtddeu+CZnsRxwAP/P+JQlkaWT+lwW6KMtTxJQzqKFnKvvPLKGgeswI7ymHXWWfW+8dhggw00zNFHH223NMx6662n1/iLke6aa66pOEhnqNfS4ejzpjLOwbpI+KOTunqQhuU6TgO5wWKRRRZROR988EGNYvn49Kc/3ZIXiZZ0LFoe4CEvaRpGFixqHDARw6clCluvN954Y33On9VXUSitz3zmM/r8zjvvLJ7HJ7Q/wsCX8lhyySU1vLyQajCrJ+C72267taSz1OdxO6PseU79Q2arp8sss0ycVNu5yVjXZgiDPLfffrviUedPiK++GDPaJqknyAM2Rjzfcccd7VKPhIFnnR6K6/hhhx2mGBBPOkzlYXWLOg0OMuLYovwI89hjj2mYFMM999yzJYa0llNu/mLBSZN2TRrIJwuQ4sdtdY22SF0zH+Zf/OIXGtbqERihB9Ex8ANrSIx8vabuoX/RUzyHLD/U10ceeaS1++676zOO6C95ee6j72jfxJcOWuWhvqLToaays7pCWGtH5On9999XnqYHeG5tiHqaQ3FewMbKG1yQWQYaStnEMl166aUqBzjR79FOnnzyydJ48I/XlVh61B983k3XcY1+QAYra3QmFMep0tWmd3P6F/Qm7QDZq/rjnDKifMv6m7r2FYNUhX9OG4v5cG71BJksf48//nhRP6r6CuoUdZ54YCKDbVpeYrgWtkJdW4/LBh1BmUK0Q3jSJ/Hj3NLQAMlfWd8oL0dF2yNulT5uattJUm08qfcyMKb9DvlM+50qfWHtyOQyHVfX7pvkTHmmfU8VRk19s8mEvsb2orzJKzYU1CRXil98Tf5zKC+UcMoxpEnQlCEVNiYUFY3SlMfLL7+sFQ+DGTLlRQU3ouKSERn1s1ttR3gCmEwHFPdz+MRKs4j40YnJTydrROeYGqCxAh07dqzKGS+2wqAgvxghkCkCjBOeQZdddpnGu/vuu/WaNJDNKrve/OivCT+rpHQ8kCkAGU3/iEOreEmQt/viXnzSFMfyYMqEuLwIUUby5qqsMH7SymcdMwuqUB6UGWHMeGOBJNdUeMheKCgLIzpsGgjUVMYmZx3WxrfqWFYP4rCWhr2Q8ez555/XfFg92HnnnfWaum5k5XTJJZfoLeoHHSwLvIysHKzTp+w333zzolOuMqItfnyUUUiVweqYpS++aEUwe1ERH2e9R3qxTK+++qpin2NIG9O0zZA/ynjrrbe2IB0dSZsFYUZ1hjRhrPxSPWTYYlga0U55AYQoF+Q0Jcw9DFvuUZ6QYcgiPKP+5g8dYi9JpEUd4sUJiuua1ZPf/va3KtPee++tYSgzM2S58e677+rz7bbbTp+Lz7pew8vIdLHlx3SHjBhp2LiegVtsMNIWSTMm4xff4zwtO+JZu7G8YUhDvByRf+NF/8B1+nKhgUv+0rzcfPPNGt9eOEqi6K1YJuoMacpIZlXw4n6Ki9WvX/7ylxrGyoH2xDlE3YI/fSpkcap0dSf9C3UIHWtU1Q7suR3Lyqiuv87lW4Z/Thszuexo9STNX1NfccEFFyjW1Asj64dy5LCyue222yy6voxRfqbneXDvvfdqOnWDA2V9o9XXJn1c17YLwT46MZ7WprhtxiTGKtSkL4xHrOOIV9fuc3nW5bUMI9KNyeqe2Wgy064DCxbmkEMO0bIgHNQkl8UrO1LOOdRzH2lJuJKYvp5hhhn0OcPwEFMkkChxPeIjOOGE/xPL3DpwV2CovozE+Ayzzz578agbPtJIw5VXXhmYpmfbJ4ip2lzCfQGSkZQiyvjjjx9kVEi3SPvwww+L+9zjGTTvvPPqUUak9bjDDjvotKooMJ1Sk7dFnTrSh/JXh5+FiY/S8bW5ADBdh2sJeKY+3xavLo7Jee211waZadAoTDlC+DZVEe4qTBExPS4NMUiHEuTtW6emcRu59dZbNSrhIMqQMJtuuqle84fMTO+JIdFYV8APqsNaAyR/3dQDUXAFlwUWWCCAn3T6eo9FW9JB6ZSTBbLpJjGE1A2CfIny1ek3CyOjHeHiiy8OhJlzzjn19vXXX69HeesOMvpiQUuPlA2Ysk7B1irgkhMT7cbI8GKqceqpp9btznDfYUoQmmWWWdRNRxSTRen4CC8rc/K1zz77aF2fYIIJSnnhH3zVVVfpeou33npL3bUMi9IIHdykjCgXI1G0BU7yUqe3ccExkpedIKPSfVxydtllFwuiWHWSvyLiRydMR7IwizYiHUSQTlDru3R8RVDqmpUJZUY+qD/oKlx6ODKFHZO8xOnlb37zm0A+5phjjuKx6eLiRuYJLm/yclW4gFg049efsgNTGWAIV199tboBoq/kBUplt3QG+igvrer2QpnLSFw44IADtP7npku5LL300hqc9sQ1blScQ5Q1ZH0N54RBvxvFutr6wZz+hUW++LQ3UU4ZddrfNKVpzztpYxbHjmn+mvoKGdzQqOBpJAM5eporB2UTY4+dAOFmZRTzt3udHKv08RRTTNHYtqvSwV3JSAYK9JS+KUdfWLxYx9W1+054VuV1+umnt2T7HOv6ZmwZ3NbQheg3ypwynnzyyTvKa59EO7gxYQdhex7UKjSMZbpH+WNETDzxxEVadLT49+RSp3xkyi7QQVGI+APHRnlumuZvFctNXHmTqWWRKjwZjdEXBvwUZSRGF/jgR2wdVMosxi99VndthnxdGHtmHTdxzBijkzBfeMJhAMsUpkXpc0ThICuVnU4EY5rOCR9PmXoO8rYfZHRafRKJTBmmygtFNu200+pLSFMZx75nJkyKtd23Yy/qgfEyzFA8yByTPeNo9SaVzeqNhSU+dRQDlLohI6MFVjFvzsFUZgDU+JDRm+KlNA0XX8fGrL0YpTLF4bs9l1ER9RfHdxM/RYwlyj8lcFt++eXVWMOvFN9z/I9T4qWqF2Qv7vAibSjNPzuSNLWb3PxpAhV/6D86QHzAZeQyxC/hZVGoIxaGF4K4w+fc2in5ssGLMj6d3LN6W6Yrc8uuKj3yjsEv7n1ah9mnnRfNwaQFF1xQ9wNmrQhGPes78GE1Y6QbWeK23FSPYv6ENbw77V9iPvF5t2XUbX8Tp815f9pYyqupr7CXf/qclLqVw8oj1REp/26vY32c07Y7SYf61C1Py3dZu++WZ5zXqnw09c20VwjbAruBATd86XN1Y1W6ndwfMEO60xXnc889t8rNmx2Ln7qlTvkwEs3oJ2+ZGKx0zuKT2ZY8hR2PHrQ9lAs6MEimD9tGhB5++GF91kmDw/jhx0iUTIOHe+65RxePaQId/lGhGCm2UShbbEBHVUVpHPIAEccUOYaNTMGUsrAOAwU3ySSTaBiOGNOMtoEVxgKjPfBkxInFIixMMSIMI2wsdGE7sJSayrjMkE55pNc59SCNw7WNeHDOWzP40aAh8sHoMAqbkQXo/vvv1yONnzdpOifxqdZ79kc9ghjhNiIsC3fpzDEuWfBTpoQY+ZdpZMWUsiA9RrdzCTmRSfyBiygoUPI23XTTFfeaTsraDPIwosSPssVAYUYifVHEaGGBEG2AhZMQo7VxG0RGFgoZxYsl7R7HTvWQtWXKxAwndrHAoLPrmH98npu/OA7nvKBOOumkxWgz7YwZuHgxLuHiPDKyZHVtqqmm0g6EEZiqdsloPu2ftKxNxfUS/rlks1nivtAWBX45ZdcWKbkAQ2bmxL2iWDxOfe8vdVoPwIsFqSw855yXvqby74+Mqd6NdbW9MPanf4nz398yivMZ843vp+dxuP60sZRvU19hupi6anYFgwXUs27lsP4UHWmbDzDj00SkCcV9Y1OcnLZdxQN9QT8LWT9O39ktz7p23y3PVPYyjJr6Zl526Se23XbbwIsTgzDYKFCv5ErlTK/HT2/099o6YlZ9MtJIB5hDKEs6R1ZZM0pFJWA6myngTqhTPnQ+kPgEBRqbuRfEabJiGcVGx06+UmKEVhb/BPEdVuMAw5BRQTrCqo4t5cE1q4Bxm2Dk0QwZptX7Q4xkMrojC/80j4wc102hkJbFYeQQI8zisB0WU+Ks9uc+02oYdOx6wrQKBFYQYcDLRjhlMZJ2/OBoU2LwTd06iCt+afpyI/6damTiOoOByGgs1GkZa6SGv5x6UMaCzhajkHxgIEKMGENMi/GSJr7aQXyUtTOmPjM6QllDzEKIf52OumH0ysIJ7cCJk775s1sHrh3UL/ED0/jp35RTTqk7pYh/q6Zpuxak4equSRuZWLUPH8qr06/bpW1G/Dx15wU6ceqNTY/S5lOyl44bb7wxMBpBXqlnMTHtzD2McXanoM7G1K0eQhlD1EF2jyD/TPVDuLtUUV3+eBEBD6sXKY/jjz8+iE+5rnhnRTu7GaH7cG2KX8LPPvtsrWvM7KR1jZ02iMtMFpgxgs/+z+hgiHxRFzFS77rrLm1LjFBb+0xlaroGH0uPuk29Zso2p+xyeBOGEXmwZ2cEI/FLVSPIRsfsftVx5pln1kfoD3CjnJpIFq4HdB8vyfaSa3ya4vbnuendVFf3p38pawe9KKMyvmV5N9xi/LttY2X8m/oKexFHD1L+7JbCQAMDVN3KwSwPRjjlhJFHP4cbYRNV9Y1N8ZradlV89Dh9JjYFL4TxLG+3PKvaPTJ0yzOWvwyjpr6ZATl0Bf2V+L1rf0E/irtJr+SKZSw9z3GkJkzuYkPC2kphSVBXtHJPKp4uduPcSDpRXT1u1yxuIRzx7Mciqyoq40nYJj5xPBa1sNDC0pPOoCUF04qd7Fl8g6yEsQVyLNASg6gQTYzftsVChAcHW1hoiyttQR0RWXUMT+k0lY9U/EIO7scyxDJbojF+tnBR3oz1sVR45SWdccGThRrxwjfjY0fyxCIxnPcND/IbL+b83e9+V+y4YmHYQYAFaRD8wc+eySii3peRx+KejL7oPeoU4eStWa/jP3b8MMwJwzk7SBjVlXEO1sbHjjn1wMJytDRY9RzLKVNKcTDd+SF+Dp7ykliEAR9bYGWYsUKfBTFGcdnL6FSLHRIIyyLNlFjhTL00XqwE59wWy6T1hPiibDWMrFdQdmAho28FD+oDMrHgs4piGQmTthl4Us4mlyj1YgeclCd5FKOzCCv+wLoLRZw+9Zz7xo8FJsgQt5kyPZS2W9JOF6tQL+M6zDmLpozKMKzLH2WMnLTvMmI3kFgHEZZFmbQZSGYDNL7M5BR1jTolhnXBjoU1VtaGCfWAxcAQeoiFUPaMoy1UTPPDwlSeczRKcSO/4jpS8EMeVsznlF1cV6wdxXqRNFlYigymG00O02fSSdqttmOaF+RBp1u+bYFfWyS5iGWyXQAsDriDbxmluKTXxKEc0MdGLCqEN4sOoRxd3U3/Yuml7aDTMjI+lDG7hhilfO1+fKzCv6mNxTw4r6onPGvqK9gFLNbB7PBB/YWa5CgrT+KxmDTWEegd9FusfwgXE3mI46AX0vpK+FQfN7XtOA3ObaEgC3qtDpOuDNQUQZt4lslF5Kp2z7NueKZ5LcOINGP9mNpo5JPyZec28Ke9km9bDNokF7JXEXxyKC+UcKLCmRGZw1hGP7QDsLAyndGyXQHsHsrQDE27x5Ht4GQETLeUiu+n52U84zBVfMrisT0Y4SGep3JxT0ZdixXR5KVMmVNodHxlJKMobbszEIZ7MWFAYazKFGx8W2Wqww+FFfNCOWOsQDIFXnTKbUyTCxmdKvJHHFM2STC9JC3kpJxTAjswAIuYwJBfTPAh3SqiYcErLQ8LX1XG8AWTmGJ84vvxeVM9iMMaP+rBWNl1IS0fC4scZXjYc45gINP1pViAWcpbptHj6G3nhKWuWv2M61JaT4jIvTiMMcOQs/KFZ1p2Fo5jmYzci9sM4ahX3Evzw7OUaAuUP0T4snrCc8sn6aX1JNVD8LHwlh58y/JG/S9rA2UYGq+q/JEm8eqIFxn0XioLdQeFzip8+IyVupbm0/iSP56LO4rdajuSV9KwusvDsvyk9asMN+LSxkmP5zHVlR35i8OXtVU6SzrHGAvyBA6xMRenyXlZXrhPuy4rS55BqUy0hyr99r8Y//tPcUmvCUWZxfnlXoxvJ7q60/6FtKC0HXCvkzIiPPlI610ZX8KmVIV/VRtL43NdVk/icHV9BfUCvWN9fByP8yo5ysozjkuappeoQyk+cVjOeR73BWX1lXtl+hhZaGtVbdvSMkNaZv60jOOBMAtjxyqeZXJZHI5V7Z5nnfAsy2uKETyhsr6ZMkUnsPVdTAyyMHAYU5VccZj0PNeQHo+IEriRcLfAd9imuhojeIAhRYDFXLgb4N/p5Ag4AiMXAdY54KfLTh4yijxyM5IpuXSOYYysM+BDJrjuGPHhEqap2W3Bpnvt2Ug+uq4eyaU3/GSX7WHVjQwXOvORHn5S9kYieZFT1y+ZUVIXU9zVcB9ksaHMmATctPpD+GznmMgDttiwP8J73P4jwMIwfKKcHAFHYGQjwOJD2rJtnzayc9MsPb7X5PeLX/xiW2C2JMS4Hk1GNBl0Xd1WzH7RTwRYJyOzObqAuZ+shn108om+YLMCDGdoLvGZZsedTtan9TejPiLdXwQ9viPgCDgCjoAj4Ag4Ao7AqEIgd0S657t2jCoUPTOOgCPgCDgCjoAj4Ag4Ao5ABQJuSFcA47cdAUfAEXAEHAFHwBFwBByBOgTckK5Dx585Ao6AI+AIOAKOgCPgCDgCFQi4IV0BjN92BBwBR8ARcAQcAUfAEXAE6hAYMkNaNiPXL5Lx5R3Z17ROxuIZX0nky0Qjnfi8L9s68Und4UKDJRNfIGJ7mv5QL3j0J32PGwKfK6bt8on34UgjRVfI3rxBPkainyDvNY4jBYNe53s085N9d/Wrl+xKwJdQhyONNv080PmR/eP1q8Oyl/WgFudw0w/d1O2B1J8dFUa6AXXVdacfZKniw3024eZreCKofvWp7mtAMZ944/r4/kg7jzdMr5Odr3vZ13nqwvXiWa5M/U2LL4jxJaL+UC949Cf9cS1uWg+lY9G2ywd/aMPPPfecftVLPs86bKAZKboi/thKr8EbKRj0Ot+jhR9fM+RreXG74kuq1m/ywQl5kdWvMpZ95XSocBgs/VyGz0DkeaDzIwNLWqbyCfOBEL+S53DTD2ndrhQ8ejCQ+pNkaGs5NCQj0tLxhqeeeiqceuqp4ZVXXin2/xOhC9p+++2DAFtcj+YT3gwXXXTRIJ+OLrJJGfK2JV/jKe716uT0008Pyy23XK/YFXwGim+RwDA5oVyWWGIJHUUYJiINmBhl9ZBRaPb5FSUW5KteYYIJJgjyVa8Bk6GJ8bikK6qwcAw+Rma0YMEIXdqurrnmmrDxxhtrv3nvvff2ef4xCgN/NtR6sAyfgc/1yEthqMspF7G0bqfxyuykNMxQXQ/JB1nsa3sLL7yw5nuiiSbqk3+MyhlnnLHP/dF4g6mdZ599NsgnW4vssX/ho48+Wlz38oQvpQ0E74Hi28u894KXfMJUXwR5CRztVFYPab8yShMmmWQSzf4CCywQ5HPKQwbFuKQrqkB2DD5GZrRgkbYr9M7rr78eFlpoIc0s/eZOO+2kv49zP3hnQ60HU3wGL+cjK6WhLqcctMrqdhqvzE5KwwzV9YCMSD/00ENhlVVW0U83fuITnwh8keqFF17QPOJXSeOHZGohzDPPPOG1117Ta/7wG55//vnDE088oV+s4fmGG25YPOfkrLPO0k/IwnurrbYK7733XvFcvlEf9t1338CnIjECVlxxxYA8ZYRSGiOfouVzkqRD+Pvuu0+D1uXh5JNP1ngvv/xywRb/JnicccYZ4YMPPtDPVcIbnsgi7iuln5rkizy77rqr8tlyyy2VB1/qgVZbbbWw33776Tl/jAButNFGBa6bbbZZkO/P63PezvmSz0wzzaRpLrvsshq+iPzRCXEuvPBCvUJesI4NePyXl1pqqQI7OiUjPlHMyDl5AvstttgivPnmm/q4ia/x4Pj+++9rnuGDvPvvv3+gIRnV5dPCxEfqD/Ugzvsdd9xRBLnpppvCGCkLcK3KG+VNXbG8gQ0/cWkq+HDy05/+NCy22GJ6j3pAmGOOOUavGZ3lM8bcgw8dHvWdUd0yuuuuu7SdEJYfswSPPfZYWdBQV76kuc022wTkAQPKhjYT+9w1YUod4FPFhuFaa61VtFmrh+SP+vLAAw9omyKfBx98sHbu4Hv11VcXslNv4IEs/OBNu0ipCQMwIX8xkS557a+uaCovqzfnnXdekQ9Gd+qIuky5f/jhhxqMsmf2YpdddimiUV/B6+KLLy7uUT7rrruu1gMwvuGGG4pnnKCXwIJ6QtyDDjpIZwP6i0GTvqR8advMDpL2Ouus0yaXXdTpS8Lk8DG869opvC666CLF1LDga4f0ATlYEB+q02X/C/HxP/3EJptsonWANMEDsv6DdTtrrLGG4kPdPP/88z+OLGdVZWeBqtqK8addMRpHvYDOPfdc1THUETCjf+Gz6hB6lD7FdBD6OtVhhGvqo6iP8I3r4eOPP6738M2u04Pwp16JW6Jihk454ogjuF1Qk87OqS8xPjCuKqci0Y9OWJMl7oVFeYJVJ2uvmnRpU91iNt76Gson7qtSWblu4lenI5vKCf519lRTOVmbbdKRdXyq6jayGdXZSYRp0p/nnHOO6mXaL/oZHdJTEkWfRbk+0vJ9d/UrwbdLFtS1BICWfMZRfaFF0bUeeeSR1u67765hOIp7R0saXSGDKILWaaedpuHnm2++1imnnKJ+YATAp0cyr/wOO+yw1m677abX0uiK+GJQ6D0xYFpSAVvwIH0xKoowdiLga1h4rrnmmi3pnFqiLFpNebj77rs13kknnWSsNC34iJHRkorRks9Utnh+3XXXtUwmzqHYH1kWbRX5wkeI/IpS1HCxb5ZM8akvHPcuv/zy1uGHH675WmGFFTTspZdeqjKJgdGirMDmySef1Gfxn0yftFZeeWUNS1pgLQZFIRN5IO6xxx6rYYw/PPCJFWNd83T00Ufrc2SGqvjqw+gP+UmD+kH5iMGn19QTqCmfhCnDhTIGb+lklDdpiFFK8Ma8Uf/I2zLLLNO68cYbW/KipzJRbrIIU3nYH3VGPkWqz8Wo0PKizCErZ3mRa8nLSovnyEEdLyOe4y8uSrx1wQUXqAyLLLJIWdBWXfnG7eKEE07Qeky6a6+9tvLKwdTKAXkoF9YwHHXUURo/xlvcd7RuU7+pP7QFa0fEg+RFSdsvMtCmjjvuOM0bvoApNWFAuey4445t0Yxvr3RFVXlZOyU92sSee+7ZEkO6TZb0Ap1HeJl210e//OUv9Zp7Fpey5lpmhQrsuF599dW1PYIt12+//bbyMH2EjsI/XV689bm8YLR6hUGVvozrFnrW6kScb5OvSucTNodPineZDpKFmZr3DTbYoCWdYQv9A1bi7lCLRSwv53W6LA0rL4Gqa9Fx4C8DCBrE6j3pU4+t3XCNXocMm7Ky43ldWzH+8H311Vdb6HZ4U09oey+++GKh20gH4j5hZCBF5QGXVVddVZ/Ff019lBj3ygc9ZhT78tbpQdPx9L3ITPrIJAajsjJ9VKezc+pLjA+Mq8rJ5Lcj+hv/cuoSZbrkkkuqfDIoZUHajrH+M9m5V9YPE7GubmED8Zwf2KDbwIZflY90HT9Lr0pH1pVTjHGZPWV5rSuntM2W6cgmPlV1Oy6EKjvJ6gD4VelP0xnoCvpawhH+9ttvj5MoPSdcDuWFEk65hvTOO++sQspobZG+gW2LJmTEQcPceeedRZj0hMpthoA9s4KnAzKisWIYQgZqrOxpvIAhb0wWpThaeBoVxqRRUx5kdFCNCYwNI2SgcZURyhIZqKyQ4WHK7+abb9bnpnyNR9yAzZCKjRE6NviiUDFWOEcBNhHGMGFjMpkwlIyswxY/bbvVdsTwZCGaURlfe2ZH8kSZvfvuu3oL3DEczIBsyieRYlyoU+SFDs4I45d7lCPUlDcMbsJjREMyWqPX5KeMrDzB3Gjs2LEaJ14cipFDXslfDmF0IkdcFy1eXflau5BZHAteGPUySlMY4VV1h/pDuvAxQgYZpdbLGG9u0F74GVk7MkPaDEVwN4JXWb7suR1TDOhEqjoJi9ONrsgpL6s3uYuhkYdOASzJB8QLItf8THFvvvnm+qLBc8MO44z6Al122WUanpcUyAwE6p0RhtKss85ql2oMDIS+tLp12223FWmlJ7Qz8len83P4GN51Osh0BTrYyHjbAERZfbCwVcdUl8XhwJU2gBEUk5UdL58mDwvgwGLvvffWoE1lV9dWjL+1K9oPvA855JBCDMPM+hLqBLLGVDaIFD/n3HSa9VFNhnQcJ9aD3Cd99J6lS71AbgZ/oBydbWVaV+9SfKrKSROt+cOART5rb2nQWP/l9E9p/LhuWXnF/RX2CulXGdJ1/HjWpCOtbNNyMoyr7KmccrL81OnIHD5ldTvNd5nTgfgKAABAAElEQVSdZHWgTn9SfvHLJLYHeG+33XZpEn2uCZdDPfeRZiGhVBydAhIhlJiyhETJ6LE/f1JplL/xEJB04QXXTJFB1157rU4/cy4FxCHgv1tFLE6J/bSb8sD0gHTuukhSFFiYdtppdfpOlFCRhBRwuPLKK4MYKYGt/qCmaeEicskJ6UBHHnlkmHDC/xWbuXUwrSeds053y6hQkLfCcMABBxRTgSXsKm+JMiqeiTLUc6b9p59+ep0+veqqq9Q/+K233tLplDnnnLMIn3vCVPfUU0+twcGdqSlzZ2nKJ9NwMclqdb3EfchIOtsADuZOZPer8jbDDDNoEGTAJcLq0SyzzGJRG4/4uEPrrbdeEXb88ccP8var25sx1R/XMQKJ4RRklkLdJJj6Mh5lYZvKl3YBrka4VrEokLrRhCnTsNBKK61k0VVWGYkorjs5ef755zU4MhhV8eoEA+OVe6zTFYZ1XXlZOrFbht2rOlJn0H+33nprYIsy6hQuULiwcI/6IB122HbbbdtYcJ/6As0777x6lBFpPVJ+ovzDpptuqtf8Ua5MZePyY/GKh9FJHQZWz5v0JTxinCL2etqkLy18Ex8LV9VOJ510Us23vKSoG4WFl9FgdZOhf8nVR7iC5OqyHXbYQd0R0Yd77bWXurngrmQknXQhD2HIJ+UDNZVdJ23F0qs64toiL3KF66SFM/1m13bsdR9lfDmiiyxdXEQgfFyhXJ2dW1+Uqfw1lZOF44h7Gu2RdS621sX0YBwuPW/SpfRPdXXL+iTc3oxwnRNj2i77HOv49Qnc4Q0wRl8ZxfZUbjkRt05HdsLH5Oj0WKU/sblw5eEYYw7/2DW30/TS8D03pGnMGJYxYXhCdoyf9ffcjEr4WENYeumlCz9W7uPfJlOBnGZRTh7kbU4NaRk9Ur9SGGNcQ+JSEVCuGJ/4NM8+++x6vz9/Mj2i0ek0Jp544oIVOybgDz3VVFOFp59+WjtvZGKfahmBDDJSXoTt9ATeRmCy/PLLq6LGHxl/vV4tWIwNgaZ8mjx2RC4oNVLZ7STma+HtGOcNhY9CwY8KXzmMFjrEL37xixa88Wj+v3HZEEneZivjslaAly1848HTXozKIiy44IJdlS8YNGFqPpRzzDFHWdId35MREI0jo2ONcXMwwFjsBcW6opvyypUBfSOjb/pCho+ijDpqXaTjxhhOjeKUb1qXKb/UqMCwRc/W1fGUL9cxBoOpL8tkybkXt1MrsxQfa2O5/Uunugy9joHEegfKFR9l/FzryGRpKrtO2kpdejwzfHL6m9w+yrBtSrvpefwi3a3ObkqjqpzMoLf4+LCLW2mQ2dQgM2ttbcLCVB2bdGlT3bI2l9bhqvSa+Fm8gdCRvSqnXvGxvDYdY2xtrQovCPFgAOe21qmJX87znhvSCMzbHuBNMcUUKoNtHI8xkEsoUBvJzY1jo5UYJTItnxutT7icPBCGhsioBp0cxqwtBsE4orNkNJpGTCUXn+I+6aQ3ePOsornnnlsfMcrHQoUyYjSGhQMsbOScRSplhnSs5G3nhTJ+8T2MckawxKdMF2rwjEUCcRnl8pVpdZ0pMKMTg9yMuJx8xnJRDtCDDz5Y5JVdJXjzL8t7HNfOZfpQR/fsSHmyeMjks3DpMS4vk0Pcc9refB9++GHd4SJu3PChfVBPZApYF5Nwj0WLbGlVRXXly+gksy6Goy2wZXS+CVMbxZP1C0F8OYvk6Zgnn3zy4jr3ZMyYMRpU/IOLusrMEPUjxiEHAzpgRuuNbBTVrjl2oys6La84vaZzjGUMLhZMQYyEYMDKdK62T/LECEouISujKoyGTjbZZKXRusFgMPVlqdAd3mQXJ7CjrcdEm4PYxQFqwiJHlymj6A+Dix/6b+uttw733HNPkPUjGiKuk3zYirZobaCp7CxcWVuJks86tV2u4BVT3Bfb/aY+ygxfG60lns3iGA87xnrQ7tUdre31R2dX8S8rJxYWxsTCOHEl1FlkdBL2SbzwNw6bnjfpUvqQun7SXnIoI+ufbFYiTYvrnLqaoyPhNVTl1Ovy7iQfDDDSn9OP9ccmBL86Gr/uYTfPGOLHiGQ6kylMjLl99tknMDrFyFsusdIXYwDFxcrQHGI7PaYpxIlfGwbTMIwIsZLeptpy+OTmgXDwxRBkWsnIjA/xHwo0GEao6mjmmWfWxzRw8ZMKGJopMQpMgxG/5SC+ltpYr7/+esWWsIceeqjuGEKjtI7G+Ka8wBYCJ/A195c0XHxtL0XiR6wj7uKnp9jGYXL5gglvhJQrK+4xEmwnl6Z8xulxblPkzBCwwlz87tXNhWfs3pJDptwoT0YP2XmFOpt2SMYLLCgL5Edx8kLBLIj4zOsUHbMBrNRn1IORq7IGbEY6cUmHusK+6lWUU77MgsgCmCALSJUfszDMijRhyksgI/DUB1YzkydmPmSxV5U4tfet46KuUp8Z5afjwviIKQcDpohpw2CKbOQxpW50RaflFafJlCAdMMZyGZFXOo8f/ehHiisvKjYaQvvBdSF+oSjjEd+jbqNTxadP2zYGDbqCEVKjbjAYbH1psvbnyKgjL5u4d2AAyeI6fTmhv7F23IRFji6LZaTfwv0F1xHbVSd2+zr77LP1JYe6jpsgJH7jemwqu9y2oswy/kgPdyLqJv0veix2lTEWTX0UGGKA8NVN9BwDQezCEVOZHoyfV533QmeX8W4qJ4sz5ZRT6ksBfQUYoadyqUmXNtUtXPQgsGS3DnQufWAVNfEjXpOOHOpy6lV5mz1TZyeV4YhtYW2CmRjsNVlwqv1cWfiu7uU4UhMmd7EhYdk9QQwN5rT1x84P8pbGIyWpvHqfYxVJxgsetnOEVPi2BTbEZbeBeNGf7GdbrBK29HnOIqCUbBEEqzpTasoD4WU0tsijLazgPudi0BfPRJG1WCRjDvm2mOg3v/kNwXWhCmFMXrCGpDPWRWN6IX8szuSehePIwiXIVmvbM1aRs8igjMg38lhY8pHKRDxW8hNGfNtURltUxD0xvHT1K4uejMr42jM7Ir8ovGJnDXiJ8tfdOixMXT4Jk+ICXnF+OGdhglFT3myxIXVJDFbdVYZFO8jGYoYysp07CMPuCRALjWREpMCVNkA4W0SW8mGHEeLzI6yMdOm5jASnQWvLF/zgISOhBT/koDyMmjBltxp2XTB5KF922IFSvFlgKqMpxlrTIV7cjljRHusAdi2I24hFbsKANoIsJhcLrZDH2hJ8utUVTeVVVm9IT16OVB5bmMW9lA488EANY7va8Jy2Qj5kcKEIXqaDKAvCyYtyEY7ddWI8ObedbgjULQZN+rJM5xZCRSdN+jKHTxnesQ4iOXSVGNOKj9UJdsuxhbGEKcOC+0YyQ9hq0mUWliMLmSwtjlb3bKETutbKhqMY1nF03YnFnhM/LbuqtpLWDRZ9E1+M5IJ/ihltTF7aCnlJK955wyI29VGEY/G1yS1GdUu2iVW+1j8RpkwPpvqCcPBhdxyjJp2dU19SfKrKydK0IzuWmH4HT9v9SwYQLEjbMc1PnS7NqVuUR4wri0mRoyz9HH45OrKsnMowTu2ppnJK618bcNFFE5+yuh1F11OwSO2ktA4QMNWf2EFWxuDMj/K3XWTSdOJrwuZQXijhBBBm0OYwJtMomipjTqabGtmIP5JuBceKTgiwbQspi8wzwqWEMUInISM56aO2a8Ihaxk15YG4NAi2YiojttOxLayQ0Qwq+JYZS4SPjQ3ikOeU4CmjuH2wEP+rrDzDD1ni8imTiXvwjIkOi8oLIZuVjYVJ+dp9OxoO8B4rO12U4WBhq/JZhQvYxfgZn6a80alSjnFe6NxoRHTKVUTdKjO0qfNl98v4UJ/ZZcTqRop3HKeqfDGk6eggcYNoyd7ecbS28ypMLRC7fFj52r0Ub3CKsSJcWTsCd5mxKdqA8UuPORggk7V9q0MxH+6RlsnVia6oKq+yekOaGMnUF9KrI3QcPIwo47L6XoZdWTj4gAN1y+qL8ebYHwxIr0xfluEYpxmfk9dYp8TPcviU4c29sjZBOdNurLzjtDhPsUifc92ky+I4hAWfWBbyio7AEKJujhV9VlYuxqeu7MhnWVtJ6wbpx2mUYUZ61GnkAfc6quqjLA5pIRfpQGX1MtWDYJ+mCz6x3Ma/Smfn1BeTx2TjuqycLK34CH/yZTolLtc4HOdl+eF+nS5tqltgEfcRdemTVhM/wjTpyLScyjCmPZHflKrKqar+pfHtuooPz9O6bXHSY2onpW2E8GX1lPzSJsT1M2VZeZ1rSI8HBwncSLgTML1jbgONEcaBAEzH4w7A7gj4zTmNTAT44AdTbLhi4LsqnVCQETadTpe3fd24fzjnTLbY0hXo9sXQ4SzrSJeNDxDhi8qCM3bHcRp3EWBNAm47YkjrWodxFwnPuSMwOhHAhS/HRO75YsPRCWd5rvDdxLe0yQe6PLbfHS4IsKUgq3t5WcSHVUYb9QuI3I+3uRou8qZyTDfddOrPmN7364FBQNyG+nxtdWBScq7DGQF8/PEjtq08h7OsLpsj4AgMHAI+Ij1w2DpnR8ARcAQcAUfAEXAEHIERiEDuiHTPd+0YgVi5yI6AI+AIOAKOgCPgCDgCjkDHCLgh3TFkHsERcAQcAUfAEXAEHAFHwBEIwQ1prwWOgCPgCDgCjoAj4Ag4Ao5AFwi4Id0FaB7FEXAEHAFHwBFwBBwBR8AR6LkhzSdS+QoZnyUdSBqsdDrJA58GvfTSS7O2S+mEb05YPj/M50SHmgayXGSPS/2SWdUXB4c676M1/YEs09GK2UDli89h80VDttzMpV7rBtl7V79498ILL+SK0FW4pnSol2xbKfvKdsW/15G8nfQaUefnCIwQBCp3ok4e5H6QRfZW1k3q5fPcCYfeXg5WOp1IfdRRR2necz420wnfnLB8fUk+N5sTdEDDDGS5yOfPFd/4C1kDmplM5nwhj68CXnLJJbUx+CKgfBq2Nkx/Hw5EGgNZpv3N77gUXwxirf98fEe6l+JjEk0Y9Fo3xB8iaUq7P8+b0pEBG8Uh/gJkf9Lrb1xvJ/1F0OM7AsMLAfRsDvV8RHqEvD+4mD1A4PTTTw/LLbdcDzjlsRBDWgMOZpo5ksnXnYJ8DaoIykjaEkssEaRjLe5JYwzcl68rFfd6fdKLNAa7THuNwWjmxyg0+xaLgRmYnZlkkknasltW79oCjLILPpYELbXUUoOeM28ngw65J+gIDFsE/IMsw7Zohr9gfNnr0UcfHTRBTzzxxLDyyiuH7bbbbtDSzElogQUWCPL54CKofP41PPXUU+GVV14p7rEf5UBj1Ys0BrtMC4D8pBEBvlwpo8t9DGiLWFbv7NloO/KFyYsuuigcfvjhYa655hr07Hk7GXTIPUFHYNgiMGAj0uIKEhZaaKFA577sssuG1K8VJcioHc/HjBkT9thjj/Dee+8VQL322mthq622CjPNNFPB44477iiepyfnn3++8olHAdMw8TWfdV100UWVN1+v22KLLQLKGXr99deVFyNA6667roaZf/75ww033BCzCFdeeWWRxzXWWCP8/ve/b3ueXjCStNFGG+nX8khzs802a/Pvq5MJXn/9618Dn4M2TNZaa60Q+ynKt+qDuA4of8IcccQRqQjF9V133RVWWWUVzRtlwCjvY489Vjzfb7/9wkorrVRcc7LDDjuozJwj+4UXXshpmGeeeQL4IJ8R/tqMFMF7xRVXDPiPx1RX/ob/mWeeqbzhcfnll+snuy+++GLlCS9Ggr/yla8UeFDPwLiMyOtxxx0Xdt111wIfcREJGB9GDz30kGJC2fBbf/312/DFECYN5OE5hj1k8l599dWBr10utthieh//TbA55phj9Hq11VYL4GrUVMdvuummMEbaxk9+8pNaLI0fxzgNk6upHlv8/pbpOeecU7QH2j5lXEVVWBK+qZ288847QdyYtAwoh29+85uBtgDeEOUw22yztbUtZAPLeOagTt4c7OvaI22R+oUc1gaoX1XECDOfqqe+EB788IVmloFntK8HHnggwIMwBx98cBurunpHwCbd0IR5W2IfXbz44osBvYe8yJeWd10bh0VdnsvSQz+RDn0FX5ekLWJIG9XVKQvDET1t9QfZwfOKK64ogjTVn/62kyZc0FXf+MY3tC0jH3qrE11XZMRPHAFHYHAQyPH/IEynPtIifQtf1m9961st+eSy/j744ANN7nvf+576tm2wwQYtUSqtL3/5y3q98cYb63Pp7Fr49RHvpJNOap177rnqgwpPUaYaJvZHu+666wp+xM0h/AzFCGsR9+ijj9b4yAFJp6LXpLf66qu3TjvttJaMeui9t99+W8M8+OCDer3kkku2pMNr4ZtKeH5lPtKWJ/IlRmFLOgDN3worrKD8+KuTiecbbrih8scXWozu1uKLL97CLxuCL2nLJ8tbYlC0Vl11Vb2Wlw99nv6ts8466lMtHUjrggsu0LQXWWSRIhhpkOeY4LnMMsvorWuuuaYlo8OaximnnKIYScfYsnJBlt1226117LHHapg4n03lH+O/5pprtg466KDW448/Houi57KwU3mTX+on6T355JN9wnEjxgfsNt10U40rnZSGx6cfmfF1xvdSjGQtn1lnnbUoT3hQ3vIpcQ2DXJDJC1/OxbBTXmAMNmIAaTjigytk9SGnjtdhqcyivzgNk4v4VfU4itrqRZnShqhTpEe6YFVGVVgaLjyvaifrrbee8hbDs8WPdPhZeaAvuB47dmyRdLp+wepglbw59biuPW6zzTYqA7qBekG7pKzfeOONQqb4xMKjM+UFtUXdIQ+nnnqqBhNXAm2PtEnq1N133x1Hb6x38KrSDTmYx4nF9YqyIH/oDtJAL0KGb5WOJ0xTni0d+LMOAf1IveB+GVXVqTQs7fMzn/mMykidp00juyxa1KBN9acX7aQOF/KBPBwPPfRQbU+d6Lo0v37tCDgC3SFAO8yhvFDCqVNDGuVnZItCWCwD0RmgeOUt24K0Pv/5z6vyeOmll3TRFhmw8ASSFdH6fOedd9Y41tGZ0kMx0SF0SxiIGMOQKXAZpW7JiKXeu+yyyzR968BMXhlV1OcYkWuvvbaGKTOkTRHKSK2G509GlTS8jOwU9+KTWCbCgAnpGpGmjIrpJUqXjtI66pdfflnDY7DnEEYI/OEJNRnShOFFJK1oVi50/EYyCqzhxD9YbzWVv+FPZ2fyGK/4iBFM+jLaHd8uPTd8DC9kQQ4MZ2hnqVfwAjcjywuLCKmrPN96663tcXE0ea3Ov//++xrWjHQLiAxmSMMTfjl1vA5L423HOA2Tq64eWzw7dlumpMuLltG7776r+RM3HLtVHOuwbGon6Adwixdt3nvvvXqvE0O6SV4r+yrs69qj4W4vuWScF1rkPu+88woc7ASDP80Teof2TB01oj3wq6K6elenG5owT9Oz/Fld5rktBLZyQe46HZ+TZ0vnsMMOUxwoM+6VUV2dKgsf37vlllsUf9Pt1qcgo1H6ItZtO2nChfTIJy9d4j5iybc60XVFJD9xBByBfiGAXs6hAfORZorZiKkqSBSTbosnnWGQTk+nBC2MjMAEpu1l5CE888wzepupdSNRQEGMnrapdp7ttddeugDn2muvDRNPPLEFbzziRnLVVVepL+tbb72l08lzzjlnWzwZVQvjj/8/75d5551Xn8mItB5xqZAR4TDzzDPr9UQTTRSkk9Np+DYmH13IiKeeHXnkkWHCCf8Hu23bBB5ML9bJZAvtYncL0hSFWySHq8wMM8yg10wpQ0yDlxEuDTIar1PFuBg8++yzGuzDDz8M8O0vyUtFwUI6cT1nKnzSSScNTeWPzzG0/fbb18qy+eab63Q+9WLPPfcMBxxwgE79auSSP/AxvCaYYAJ1Z8FtAnruueeCvLjoVLxFxa0Hok4yxSoj3gEXIq732WefsNNOOwX4dEOd1PEqLKeffvqspOvqcRaDjwJVyTHFFFPodDmL3XCxiEleTOJLPa/DsqmdGDNcCoxMv9h10xE5md7Pkbcqz3Xt8eGHH1YR0Em4Y0DyQqhHfGtTsrYno7vFI/QO5SYju6EXbbJONzRhjm4qI3lxKm7TZlkIyRZwbH3a1MbBHqrLszHHdQfCPXCOOeaw223HujrVFvCjC8rl1ltv1XUMtpYB95deUFWdydF91gfBY/bZZy/E6VTXFRH9xBFwBAYcgf9ZdAOcDEoOonMQ9w49T401sfr1PmFRxFAahh0PzLDVAPIn04O6pyr+qjJqYLdrj/Bffvnlw6uvvqp+2PjdNS0ES2WhI0jv1SUqo+X6mBeG2ODHEMPXr0kmw6SqIylL24zGsmcYgfh4b7nllmp8mlEfh6UD7wXFxmZO+eemueCCC4ann346iPtQkBkD3b8c32wWJHZK4DvttNO2RbN6a0eMGoy2M844Q33V8aUU14W2OLkXVp5pHSqr4zHPGMv4fu55ml5uvDRcLIfVExlJazOMMJLMXzyNX4VlUzuxvdLjNpTytmsZpbTTtmM38sIgzrOVX1l7NINs6aWXbsv/JptsEmTmrE0WLqxNpHkyndgnQg9uxLqhCfNOkqOtWH7Sumb5icPk5FlGvoPM3ISvfe1r4c477+zTB5h8VXXKntuRl+Hdd989yAykDn7YwIY9t2NV/bHnOce4zuTgUsWzl7quKg2/7wg4At0hMGCGNIvLGCmEbIRm7rnnDjPOOKOOCoovXZvEfGgAYmSDDhkijBlFrFhnFNiuNYD8sdiEUVfxc1alGI8GWJj0SGeMfOLrpotOeP7zn/88/O1vf0uDVl4zWnDjjTfqIp7JJptMw9koVVkk8g5hiLH4LqXbbrutViYbqXjkkUeC+A0X0VHOk08+eXGdc4IRgBG99957B3FH0CgsiJMp8iI6i7h40bDRMEbLZVo1TDfddEUYMzDpiNOtuIpAyUlO+VuHm0QtvQSXs846SztZzjFu0zpiEZkRYWSQzps0WLxkhhB1jlEqsGGEFbr//vv1SCcGkV9GyfkxE8KHh2yBqgZI/uLFs8mjjup4Gncgr7sp06mmmkpHI6mHMuWdJV4Vlk3txMqL0UkzSm0bNEsYeSBGGk2XMONg1I28FteOde3RRnB5Qc/Bw2REB8Yj+uhNnqUGqclQdayrd2VxmjAvi8O9WN+hG2xxa04btxf3nDwz8s2IuvgLq74XN4dSkarqlM3SWSRxrwnidhLuu+8+bdO0c2ZDjZrqD+G6aSc5uJgMZcdOdF1ZfL/nCDgCA4PA//wWBoA3u2DIopjA9OZXv/pV7WhtGm/HHXdUow33DpQY4TCGiIOBuu2226pE4g+sO2UwCsHUFsRK+JhQaOzogOsHfFHoELtX8MxGAeI4ZihhCMvitHDIIYfobgtxmKZzk0d8a/WLguymUfe1MXYgYRSIXSMYxcSQlw8JqIsAaTXJxKg1LhLsTMCqbwxvRrdlMV+TqH2e2ygQLw8YJOIPGmRRU1s4Oi4Idwl2K2GaOd2VhJ1BIGTipcSmr/VmzV9T+ddEbXtEx8roMB26vZiZq01bwI8uyCt1kB0ZWPlPfhiZh3bZZRfdFYQ6KL6SapDjviGLDXXUHiOc2Q9ewpgKZ8cCKB7Z0xvyR1lyn3QoJ3BOqZM6nsYdyOtuyxQccZPhxZY2xQwPU/LkP6U6LJvaCSPcGJeyAFhfBql31M2YbF9h8a3VtgbWjGjG1Im8cTw7r2uPCy+8sLoJ0S4w0Kgv7Kqx//77q8uD8bAjI9e4iTGjxssZBh4jpmyhmGOIG5+cemdh42MT5nHY+BydzQslLhK8XELoQ6ipjXeaZ3ax4MXp+OOP1/Q0keivrk5FwfR0yimnVFc2+hXaOjo5ppz60207acIlliM+r9N1siBf+zpzEYrj+bkj4AgMAgIyMpdFuYsNbVGeLaSTLLTY+UA6hyIdGfltiULBl6P4sYLbFoIRkPRYmGFhOJctjwoelo6MRuk9VosTloVVkO3KIC4Yeh3/sTDFFpcRh4U40hm3pHPUYLZQT6YKi2jsGkFY+4oWi4FkRLeQj4U1LOwjjBjvRbz4RBR3sXsE4fiJQa5BmmQiEDKwOM7iIreMUGt8MS50FbxefPQnxpzunBLfs3NbUAMvwrGIjnOTnaMYnUVa7KgibiAFRvABp7iMKNe0XAjHzgXwlpkDLltN5V+Gv0ZM/ti9wLDgyE4HLLgqI/BhlxPKyeLIy0/bAlV2iAELe85OI7aQkUWcMfbsICAvTppUmby2cwe82FkCSsuo0zoOjxRL7sUUp1EmV1qP47icd1um4M6uKYYdR9p92a4xdVgiQ1074bm8ELXVuwMPPFDTtcWGhGG3A5OFMhdDTK+tfjfJm1OP69qj7Cte7JxjclD/ZJYH8foQu1KwkNDCUg+pQ7bYmQgshpbZlj5x4xs59Y7wqW5owjxOw+oVO57E7UW2qyyCNbVxAjbl2dIxPcyOSegb2h76MqamOhWHlRdbrZuGtdVbeekrgjXVn27bSQ4ucRs2gep0ne1c88QTT1hwPzoCjkAPEEBH5FBeKOGUa0ij4MRHUNNm5X7VKmsCsCMDu3FwrCIUJL+USMc6RXsmLgbKS9xAtENiK6k6wnBHIULs4hDLAe9UWafpEY+82rZJds2xjugQZDS09BO/dTIZT5lCLeS2e+SdPMTES0TcEcfPOOc5+FsYK7c4HLKaAQw+MUaEIy5lbAZsWbnEdSLmDa+q8i/DP45r58iM0UJdqyM6J3YZQJaxshq/rCyJz/M4PylPdmmRhVR9sC6TN63/ZWUE/07qeBWWJmeaRplcVXk3Hv0pU+og+NIGm6gKS4tX104Iw64GVu4ovNiQ5jl1wwzXKtyq5CV8ilMVj7L2SPoQPHLq5/9Ct7QdVenMsvZn8eJjTr2r0g1NmFs6hg18KO9U91i4ujZuYdAdVXkmHXA3Ip0yPWXPm+qUhYMP7Rj5oTKeTfWnP+2kDpe0DZvMyFNWl8rqqsXxoyPgCHSPQK4hPR5JSOBGwh0BP2SbQm+MMIQB5A1dXUrYGaFT/+EhFNuTHkAE8FtlOhlXAKfRhwBuXLiKsfDUyRFwBBwBR8AR6C8C9Cs5JvKA+Uj3NwP9ic+2efi/uRHdHxRHV1y2isvdLm505XzcyA2+7CyQdXIEHAFHwBFwBAYTgQHbtWMwM5Gmxc4YTo5AjAC7nTiNXgRsL+DRm0PPmSPgCDgCjsBwRCDbtQPhGeaWBVjDMR8ukyPgCDgCjoAj4Ag4Ao6AI9ATBB566KEs146ORqRlwWFPhHMmjoAj4Ag4Ao6AI+AIOAKOwEhHoKMR6ZGeWZffEXAEHAFHwBFwBBwBR8AR6BUCo3KxYa/AcT6OgCPgCDgCjoAj4Ag4Ao5AFQJuSFch4/cdAUfAEXAEHAFHwBFwBByBGgTckK4Bxx85Ao6AI+AIOAKOgCPgCDgCVQi4IV2FjN93BBwBR8ARcAQcAUfAEXAEahBwQ7oGHH/kCDgCjoAj4Ag4Ao6AI+AIVCHghnQVMn7fEXAEHAFHwBFwBBwBR8ARqEHADekacPyRI+AIOAKOgCPgCDgCjoAjUIWAG9JVyPh9R8ARcAQcAUfAEXAEHAFHoAYBN6RrwPFHjoAj4Ag4Ao6AI+AIOAKOQBUCbkhXIeP3HQFHwBFwBBwBR8ARcAQcgRoE3JCuAccfOQKOgCPgCDgCjoAj4Ag4AlUIuCFdhYzfdwQcAUfAEXAEHAFHwBFwBGoQcEO6Bhx/5Ag4Ao6AI+AIOAKOgCPgCFQh4IZ0FTJ+3xFwBBwBR8ARcAQcAUfAEahBwA3pGnD8kSPgCDgCjoAj4Ag4Ao6AI1CFgBvSVcj4fUfAEXAEHAFHwBFwBBwBR6AGATeka8DxR46AI+AIOAKOgCPgCDgCjkAVAm5IVyHj9x0BR8ARcAQcAUfAEXAEHIEaBNyQrgHHHzkCjoAj4Ag4Ao6AI+AIOAJVCLghXYWM33cEHAFHwBFwBBwBR8ARcARqEHBDugYcf+QIOAKOgCPgCDgCjoAj4AhUIeCGdBUyft8RcAQcAUfAEXAEHAFHwBGoQcAN6Rpw/JEj4Ag4Ao6AI+AIOAKOgCNQhYAb0lXI+H1HwBFwBBwBR8ARcAQcAUegBgE3pGvA8UeOgCPgCDgCjoAj4Ag4Ao5AFQJuSFch4/cdAUfAEXAEHAFHwBFwBByBGgTckK4Bxx85Ao6AI+AIOAKOgCPgCDgCVQi4IV2FjN93BBwBR8ARcAQcAUfAEXAEahBwQ7oGHH/kCDgCjoAj4Ag4Ao6AI+AIVCHghnQVMn7fEXAEHAFHwBFwBBwBR8ARqEHADekacPyRI+AIOAKOgCPgCDgCjoAjUIWAG9JVyPh9R8ARcAQcAUfAEXAEHAFHoAYBN6RrwPFHjoAj4Ag4Ao6AI+AIOAKOQBUCbkhXIeP3HQFHwBFwBBwBR8ARcAQcgRoE3JCuAccfOQKOgCPgCDgCjoAj4Ag4AlUIuCFdhYzfdwQcAUfAEXAEHAFHwBFwBGoQcEO6Bhx/5Ag4Ao6AI+AIOAKOgCPgCFQh4IZ0FTJ+3xFwBBwBR8ARcAQcAUfAEahBwA3pGnD8kSPgCDgCjoAj4Ag4Ao6AI1CFgBvSVcj4fUfAEXAEHAFHwBFwBBwBR6AGATeka8DxR46AI+AIOAKOgCPgCDgCjkAVAm5IVyHj9x0BR8ARcAQcAUfAEXAEHIEaBNyQrgHHHzkCjoAj4Ag4Ao6AI+AIOAJVCLghXYWM33cEHAFHwBFwBBwBR8ARcARqEHBDugYcf+QIOAKOgCPgCDgCjoAj4AhUIeCGdBUyft8RcAQcAUfAEXAEHAFHwBGoQcAN6Rpw/JEj4Ag4Ao6AI+AIOAKOgCNQhYAb0lXI+H1HwBFwBBwBR8ARcAQcAUegBgE3pGvA8UeOgCPgCDgCjoAj4Ag4Ao5AFQJuSFch4/cdAUfAEXAEHAFHwBFwBByBGgTckK4Bxx85Ao6AI+AIOAKOgCPgCDgCVQi4IV2FjN93BBwBR8ARcAQcAUfAEXAEahCYsOaZP3IEHAFHwBFwBByBHiPw4Ycfhh/84AfhD3/4Q485OztH4GMEJphggjD//POHjTbaKEwyySQfP/CzniLghnRP4XRmjoAj4Ag4Ao5APQJ///vfw0033RROOOGEMP74PjFcj5Y/7RaB1157LfziF78Ib775Zph11lnDeOON1y0rj1eDwIg3pFutVvi///s//dXk0x85AqMSATphfq4gR2XxeqZGMQJTTjllmGeeedyQHsVlPNRZm2iiicIzzzwz1GKM+vRHvCH99ttvh1//+teBo7/Zj/r66hlMEJhwwgnD4osvHmaZZZbkiV86Ao6AI+AIOAKOwEAjMOIN6SeeeEIN6U996lNhsskmG2i8nL8jMKwQ+NGPfhT++c9/hg022CAw+uDkCDgCjoAj4Ag4AoOHwIg3pIFqjjnmCJ/97GfDNNNMM3jIeUqOwDBA4Pnnn/cXyGFQDi6CI+AIOAKOwLiJgK9yGDfL3XPtCDgCjoAj4Ag4Ao6AI9BPBEbFiHQ/MfDojoAj4Ag4Ao6AI1CDwMsvvxweeeSRMPnkk4e11lorsLVaTP/9738DM2T/+te/wkILLRQmnXTS+LGev/vuu+GBBx4IK6+8srqi3XbbbYENA5po7rnnVp7vvfeeLp5jkSYz0WXroq6//nrd6m399dfvswgbNzh2sGDbwddff13Txi0Ufiz+TPm99NJL4fHHH2/bzIB8LbjggmHGGWcMU089dZPo/nwcQMAN6XGgkD2LjoAj4Ag4Ao5AtwiwM9bxxx8fvvvd74bZZ589PPjgg2G22WZrY4eReuGFF6qhetxxx6mh2xZALl544YXwhS98Idx9993hE5/4RNh6663Df/7znzRYn+vtt99e08dQ/9rXvhb23HPPsMsuu5Qa6/CcbrrpwquvvloY+8j/u9/9LmC4w+O+++7TtVUY8ausskpYY401wnrrrRcWXXTRtv2WCb/ffvsF9v02mnbaafVF4v/9v/8XNt98c8XDnvlx3ETADelxs9w9146AI+AIOAKOQBYCb731VrjooovCaqutFp577jndm3jLLbfsM+KbxeyjQFNMMUWAh41IY+yy7/Fvf/vbsPTSS4epppqq4M8aKMJ3S2PHjg1HHXVU+MlPfhLmm2++sMACC6jRzCg6e3rzgsB+y0ceeaSmnS7c3njjjXUtCrIS509/+lM48cQTAyPsBx54oI7Sdyubxxv5CLghPfLLsDIHKKZ//OMffZ6z5zDTU+k0Vp+AcoNRBhQHxK4oOXEIyxv8v//9b051Cm/iiSfW8/TPwqG4ysJYHkgXmX2/5BRBv3YEHAFHYGARePrpp1X/nnbaaeErX/lKuOaaa/RreWXuG7mSMLJ71VVXFcHpC2644YZw0kknhZNPPjksvPDCPdH3uJr87Gc/UyN6nXXWCXvvvbduGYphTpq8JGBIn3/++fqBnNNPPz3gShLTWWedFeacc069Bb+HH344fPWrX1WeO+64YxgzZkwc3M/HMQTckB7FBf7++++rYvjggw/acokxOvPMMwfesvH1So1jDOc///nP4cc//rFOf9nUG75xm266aVhyySVLjV7e1v/2t7+pH91dd92lRjgJYyAvt9xyYfXVV9cpt9gYZgQCBcbIxGKLLdamOJHj2WefDTfffLM+51Oncdy2TPmFI+AIOAKOQM8RYEDk7LPPVr/meeedN3z+858PRx99dGCU99Of/nTP0+s1Q74xgW/3XHPNpUb0CiusUPR5DODQF+K+8Ze//EVfEPguBUZz6gNucvGpbVxA1l133fDTn/5UjXH6Pu+bDKFx7+iG9CgucwzoCy64QH3W1l577SKnKBb8xX71q1+pv9kiiyxSPOMNncUaN954Y/j5z3+uCzDwheP+k08+qW/iGN/4y+HjZoQiYUqOkQS+pPTHP/5RF4dgpP/+978Pt956a7jllltUCa+00kqFknrjjTd0yhDjHOVkyoiRaBQa6TDq0clouMnkR0fAEXAEHIH+IYCvMbobf2F0MXoaH2T6lm9961uFUdq/VDqLfd111+kgCx+kSslmULlPv0RfxMAOo8xLLLFEqbyMjm+xxRbhnnvu0UEkXh7KvksBP/pVFiDeeeedGgYsrN9KZfHrcQOBvrVw3Mj3OJVLVi8fe+yxmmcUAauWmZpjGg0lwFSWEVN4jBCzQnvDDTcMa665pr6dY0jjQ4aiueSSSwJv9TvttJNFU18x7vOBEBZvsKAEpYWCwcBmcQlv74xO24rrInJyYkb5EUccoYr7gAMOKF24kkTzS0fAEXAEHIEeI8DCPAY2zAhltJbBEHQ6M5DxgEqPk65kR9oYx02E3Iw0Y/wic5lxbDz4OiwvCrhDEi8mFjiyqwd9E64d7PrBrC0j8xjhTuM2Am5IjwPlj2G71FJLFTlFGaAwWDyC64QRiy4YecDQZvpu5513DjPNNFPxto17BotNHnroIR15Zmrrk5/8pCodFqAwis22SIcffnjADcOmxpZddllVYoyE33HHHcoDV44yn2hkYZQaPzwU9MEHH9w2Um2y+tERcAQcAUdgYBHAaDznnHO0P5h++uk1MVz86AuYZcS9g9nEwaZtttkm0K+UjUjvv//+hTgYxOSBbepwHeyWrr766iIqvFj8uO+++6qrY+oaWQT0k3EGATekx5mibs8oRi6j0YsvvnjxgDdsDGuMYLb1iY1oAhEHpfn1r389HHbYYYHRa0asmQZ77LHH1Cd69913V7/reKoLRYN/Gs8OPfRQdf3A1WSGGWYo0rYTRjhYvIHSJiz7kca8LJwfHQFHwBFwBAYWAbaK44dBypoadDEDMQyK0F+wSA//6XSXi4GVKqi/dtX2dwzCGNFnsaiQPaMZxLE82PPc47e//W3tL//617+GH/7wh+rqyAh31WBQLl8PNzoQcEN6dJRjbS4wThllhlCCnN9+++2BqSxGno3YfB6XDtw2Zp111lIDFkX6uc99Tqe08LPGkOaNH0OaUW78rcsMX+4tv/zyuucmU22MfqeGNHJutNFGaqCzKpotisp4mbx+dAQcAUfAERg4BBh1xq3v0UcfLU3kqaee0l0vWLBnxE5PtmOT3bMjBm3qNmHPBuLIIA5rfPCPZg9rPugyzTTTlCbFc/oltt2z2VQLyAwqLi24ffCcHTuYeT3jjDP6tS2f8ffjyEbADemRXX5Z0l966aW6UMQCm5Jjeiz272KRIAv82F2jzpeMVcuQba3H7iAY5nzpKeZn6dmRUQsUFIo5VabIhKsIq6tRTm5EG2p+dAQcAUdg8BFgW7grrrhCjcYVV1yxbVCDARmMa7avYxaT2UtGZxlMwaea/Zr32GOPtoV9LAI85ZRT1K/a3EQGI1cY0rgcsliSBfRsgZcayrgTXnbZZbqPNYNIVSPN5I/BHtb9sNiSa7YEHOwR+cHAzdPIR8AN6XysRmxINo9nRbIRRisGM4sKGUlmY3kMVwxiNpjvlFCQjDRgSHdL+ELjxoGC/t73vhe23XbbPiPW3fL2eI6AI+AIOAKdIcC6F/Q6bn5l/sWM0DJzyFobfIYxKldddVVdBMjACutybKvUd955R9ffsFMUPsx1Ay6dSdkcmrSQ/zvf+Y7uMsJADuuGWINDX8gsLB9iYTE8xj9hq/yemSGlnyMcxjcvDSx6ZBDIZ0+by2K0hnBDerSWbJQvvryEv7ERo8G4UeDrxapjViPzdo3PF589ZaSZ6TkWlZSRjWjbM6bKvvjFL+rbPj5kVaMN7Ecdb01k8TmSNl+eYlQcox+XEZQUCzucHAFHwBFwBAYXgYMOOkgXFbK+pYwYucUNkNFn3PUIx8g1u3uwKxSDNIzsYmDS59CvsCaHvsJmNcv49voeo898/pv8sF0fnxfH6MdYZuCGfokBJGZov/SlLzUO4JCfMfIBFj7sQp/Fx1rmmGMOdWvstezOb2QgMP7IENOl7A8C7KzBW7n9MHRRBBisbHHHqANKbvbZZ1d/MvYNRTFWEaMKKEZWbkMoRUYeML4Z6a6iV155RQ34T33qU322TNpggw1UJo5M/7G9EFNmjB44OQKOgCPgCAweAnwoixHXTTbZpNLNjwEY+hHW3LCvMkYp90444YRw7bXXqmHKwAnfEWD0+pBDDgnnnntuQP8P9ugto88sQrz33nt1JyjWB7HjCD8+R45bB1vEkp+q0egYfcIwcs3iRQZ8yHNdnxnH9fPRh4CPSI++Ms3KEYqMkWX84HhjRwniS8aPKTCUHbtzpAszWGDIiAKGN59whcyQZrEiyorN8nlDjwljHWXDVCC7cqBwY7KRC3zNGDFAPj7ugu/drrvu6j5oMVh+7gg4Ao7AACLA4kEWEjJyW+UvTL+x1VZbqTFJODOOGahhnQ2zjHwLgEEX9Dp82K7OwqXiE2azzTbT0WN22igLt8Yaa4T7779f+5wquXgBIG7sB801iwQxmjGA6cNskAY+9GFxeJONvgc3w7Qf5DnxdtllF8WA87p1RcbPj6MTATekR2e5tuWKEQP8wIwYJWCxxCXyARWOrEA2n7W99tpLRxDwm2aLo9122019wojDaDMKiNEKPh9uygUlhXJi2gw3EhZjMKrM52R5RtrwYwU4/nF8ZrxucQYKaYcddtD0iMdoBh+VcXIEHAFHwBEYeATQ2zludejxMl3OiC3GKb9OqIqf8cDYxSCuo7oPxJAvjF5+OdQUtul5ThoeZuQj4Ib0yC/D2hwwAnDmmWfqLw6IosPlY5999tG3ans233zz6UgwhjPTXez4wYgChBJDEd10000h/uQ4zxhBwMjG3+yYY47RUQqLR1r8SItRbtI1gl/ZKAWjGvifMVKOoY/yZEEL4Z0cAUfAEXAEHAFHwBEYDgi4IT0cSmGAZGC67fjjj++zpycGMaO87NSBX3Q6pcUHWfBxw3/sySefLHbywMhmsQgfcikzaBnBYEQa1w3i/fGPf9ScscoZH2rSSkcv4IXhzWfDY4I/bh0Y3qyKZrqOhYw2ch6H9XNHwBFwBBwBR8ARcASGAgE3pIcC9UFKkymu+IMrnSTLlNyCCy6ov07iYZSzkINfDo2RxR38yohRbAzs1MguC+v3HAFHwBFwBBwBR8ARGGwEfNeOwUbc03MEHAFHwBFwBBwBR8ARGBUIuCE9KorRM+EIOAKOgCPgCDgCjoAjMNgIuGvHYCPu6TkCjoAj4AiM8wjwUawf/ehHpetNxnlwHICeIMDOW+yyZQv/e8LUmfRBwA3pPpD4DUfg/7d3HnBSFNvbLq961SvqxYBZMJJEAQFFRBBEkIyIIEhGBRHEhAEDghFzAlQkKCKKmYwiQSQpQUCyCCgKJlAU8//79jn31tzeZmZ3dnc2zMxbv9/szHZXV3h6pvut06dOiYAIiIAI5C8BJlAPHTpUQjp/Mad16UTRYrI/UbiU8o+AhHT+sVXJIiACIiACIhCVAJOoR4wYISEdlY42JoLAF198Yes3hKNlJaJslfE/AikhpH///Xdbevp/3dInEUgPAizLTqxtJREQgeQjwG83WijR5OuJWlwUCfD90v0h/89M0gtphMT69evt0cW//vWv/CemGkSgCBFgyXbCB+piWYROipoiAiIgAiKQNgSSXkgzmmeZThYDkZBOm++tOvpfAnz3ZdHS10EEREAEREAECodA0gtpFg5hxb2aNWu6gw46qHAoqlYRKCQCq1evtgGkxHQhnQBVKwJJTuDXX39133//vStWrJgZpFgISyk+Ar/88ov77rvvHIufSX/ExywVc+kXk4pnVX0SAREQARFISgKEKtuxY4dbu3at27Jli/vzzz/z3A/E8oYNG9z27dt3KwsR/fTTT7sZM2YkpK7dKsjhBvq7detW6/+mTZscYjWcaDNubYQQLEy3tkWLFrlBgwa5devWFWo7wnz0f8ESkJAuWN6qTQREQAREQARiEkA4vv322+7yyy93Dz30kPvqq69i5o13x6pVq9ztt9/uVqxYsdshTNZHEG7cuLFIxBtG9E+cONH637lzZzdq1Kjdwrd9+umn7tZbb3WffPJJobb5yy+/dAsWLIg6QNkNtDakLAEJ6ZQ9teqYCIiACIhAshHAXWvYsGHmZvHxxx+7F198Mc/WThbmWLx4sQm+wrTgxnMuiHmMJZogAljk58yZ44i5HUz0B/GPW4UWGwmS0efCIJD0PtKFAU11ioAIiIAIiECiCeDWgAsGVuk+ffrYyocrV640F4agD+4ff/xhYhN/5mOPPdYm3Pu2YNHF1eDoo492Bx98sPvxxx/d559/7ohwtWbNGleyZEnLesABB7gjjjjCHxZ5R5x+8803jrIpg3zhhHjFrYJV8xC++AiXKFEiUzs4ZvPmzQ6LN20kYV3/+eefrV7yZ5WIRlSnTh1zOXn55Zdd79693Z577hnzENqN8KbNhx56aCQfTLdt22btOOaYYxzzqrz7CG2HAcxwJ4HrcccdZ/1h3gnbOZa+0kfKjtUGjqUM3HLIS7nUFS3RTtpLWSyYcvjhh2fKhgsO9bIP/riyMHjw54xJ5kpFh0DKCWm+yFwEgiv5ENHjhBNOyBTdgP1cBPxIl4DlxYsXd4cccojbd999I2eIHxBfei5C4XTUUUft9gPwP1B+JPyIjjzySCs3eCzt48WPh/o0uSNIR59FQAREID0JINwQ0vvvv78766yzHC4ZH374oQnQoJDetWuXuWqULl3aXX311Sa4PDGE82WXXWaLvXDvW7p0qbv77rvtXvf444+75557zrLWr1/f3XTTTf4wE7gsEDN27FgTcT4i1ltvvWX3T5+Rexz+1DfccIMJTyzcCEJE78033+wQqz7df//9Zlm/8MILzZeYvnHvHTJkiOXPapI09+HatWvbgAGXFO7V0YS/rwsrdvv27d3w4cPtvurL5t49adIks2zTf+7LiF6s/ghWtMHkyZOtHgYIiFTycW/u0aOHDURYIXCvvfayvo0fPz6TQIYH54kypkyZ4nzedu3amXtKcMCAnhg8eLB76aWXTNjTRs4rg4TWrVs7v3DKe++951599VXrz/z5821ART1dunRx3bp1s7b5fuu98AmknJDGZ4qLBiNhn6699lrXq1cv+7Hzo2cfP/CpU6dGBDdfaAQtEUCuuuoqx0WGHzKjQi42lBtO/LD4AZDf/wD4geLfdd9995lwb968uXvkkUcyiWUuCrSRH2mzZs12G8WH69H/IiACIiACqU2AexMTDMeMGePwDUY0nnHGGXY/QXjdddddEWsoYhT/XCzOQaMRhBByiEoEJPe0448/3kTa6NGjXePGjV21atUMJJZXInVgMSYx4ZA2IADLlSvnNmb4TLPt0UcfNWFJWQjNhQsXuq5du5qwvOaaa9x+++3nEH60m3THHXeYdZrPWKARhOw7//zzrX6ELBZqL3TJFythrKI93EMR+P4+Hi0//cAdxPfH56FPCGYMYp4V/eDeTtu4j3O/v+iii8y4xkCjU6dOxq5ChQo2KEFcv/HGG27ZsmU2MIGhbz+Dg3vvvdedfvrpJpwZBI0cOdI99thjNsBhUENoXoQwAwrOMff+UhkWd87VrFmzTC8w6GnSpImVi1X73XffdXPnznWnnnqq69ixo4nnsmXLGm/fN70XDQIpJ6RPOukkGylff/31NquXLzMje2/15cdUvXp1o8+XulatWja65HETo0pG2u+//76NlhHS/PCwHp999tmuXr16ZingYB6z8Oht4MCBji/3BRdcYGXyA925c6f9QHgMxKM0lun0j9PIxA+dH3G02chWiP6IgAiIgAikFQGEFi4YpIYNG5porlixojvttNPsHoIYDLosxAOH+x6i9bzzzrMJjF7MIgJ5YQDCbYCEmGSCI8KNex/t4QkvIpj7HO4K3CefffZZu2eOGzfOlSlTxspp2rSpe+CBB9zs2bPdRx99ZO33QpN7JRMDEcRYX9mOeI0n0f4qVaqYJRjLOoOH4L00njKyysO9u2fPnq5u3brWNvqM0Ee433jjjdZmBiu0uVKlSjYQwG3GD0YoG/cLLMVYw7E+kxdd0b17d9MTMMfqTfsR3QyK0CCIc0R+gwYN3JNPPukefPBBawdCnISOoF0Y5bDywwLLf7zsrBD9KRAC8X2bC6QpiamE0Tcj7f79+1uBfEkR13y5+dIymubHwqMlLlbeksw+RDOPxXjnxxRMjEyxHjNqJJGfHxMvf/EL5selA6sCE0WYec2jIi/mg/n0WQREQAREQASwIOMPjYgtlWGtJOFegFV23rx5JiJzKqQpg/sO9zneEW/c27gfhhP3uMqVK0cWNqMdWLARzN5HGPcKLKVYorHA+nsa9zusuAhFLKy4eWCpJrVp08bxZNaLzHC92f2PkEWEY5HHKozwTVRiIHDOOedE2kafWZMCfYDYpV++j4hZtAMGN+7/niEuoYh9dIffdsoppxgPBhcY09AlaA9ENeUtX7480gX0BmxgzEDFC2meRjCwQb/4NkQO0ociRSDlhDRfOF7+C83ozU8O4MvPjGguKlWrVo1cMIJnxP/4g9v4TJkc54U327y/FlbocCI/1oSNGY/HeJQTtkqH8+t/ERABERCB9CTAvQlLJwIOVwBEl7+H8fRy+vTpjgl3uFwghvMjcZ/0dfryucexjfbxwtDEva12hu9yOC+WWYQ/AwJcFnxCnHIfDuf3++N5R1RiWWegwdymRCX6wivYNoSs3x6uByvxm2++6QYMGBDZxbFeY/iNbIMH714f4CbDOcadJJxgi2DmKTWfSZQJu2Dbwsfp/6JBIOWEdFZY+UIyisaPmVF127ZtM31Rs/rC+guJ/5Lzjjjmi45gjpZ4FMZIul+/fuZn9vDDD+/2g4t2nLaJgAiIgAikDwEsnSwwgpsFj/l5hRMuhrhJeANOeH8q/49LCNbZaqxA3AAAQABJREFUvn37ugkTJpgFt7D664VxdvV7zRDMx1PtK6+80nRDcDuf0RI88c5Kh4SP0f9Fg0DaCWn8zfiC40PNo6LrrrvOlS9f3i5OPF5B/EZ79OVn5TJpgISI5lgee/FYJ1ZilIl451EOkwz5rCQCIiACIiACngBROJj8jqsBVmksosHEoiQ8TcUiS7QnrKZYLKOJOlwFoiXue9HyR8sbbRsCD0FLGTNnzrSnukHRh9sHAwEssfnhx4vBCl9jJvzh20x/ggkXELiFt9PeWEyCxyfyM3XyJJoBkrdWX3zxxTYZEl/raC464XYnsj0qK38JpJWQBiV+TnzBX3/9dXs8g/+y/6Hx5cafCysyPk3Bi9k777xjF7rghYPRIz7Q/FjwJQv7VVMfwrtVq1YWPJ5JBvhOKYmACIiACIgABBBQWKMJncb9pEaNGrtZJbnXED2K6BhMnue+gqjFVYAJgRiASESkItJDOCFscbfAmMMENtxDuJcFXRXDx0T7H5HMpHsiWzDB3k82ZCLkyIxIFUwGjGVxjVZeTrbRXybwYcCiH+HJ+p4BRi9cNxGwuJkwyQ9DVn4JVe7/PCnAvxme6AkGPK+99ppFAsHvHNZwZ6ImYfeYP+Wtz7QLlxEYok+8j3RO2Chv4RJIOyHNFxo/riuuuMJC+PDl5eV9l3ikxkVt0KBBmWJEI64RxIQL8omLFjN7p02bZj8Q4kBGS4TUYxSKgOdHriQCIiACIiACEEDgEukCEUZc6KCxxhNi0htPTAlrh4/wiSeeaPGjiSGNyyDiG0FGdA0v5vyxvJOfSXQIdRITGJkcl9XTVMsY+sP9j3snka0IFxcMf4cfN+6SiNhofQgVlat/uY8i3llCPSykua/TJ8Ldsg9hzT0XAxaM8S/Pj4Ro7t+/v2PZ8lIZk0RxwcGfHd92wuMyGZFEYAIs6pwvYoMTNQx3DiYZMvhhEELMbgnp/DhL+Vtm2gnpIE5GrFiheSF2+aJzoeARGiI5uNoQEx0YWTKK9ImL0LnnnmuPsnAViSWksR5ccskl5t/FRIVYPtW+XL2LgAiIgAikBwFEHiIMN0AEbrSEGOMexbLYCDUEGeKZSXhsW7BggVlgO2VEzmjRooUZiRBpPiHCGzVq5PyS4whdIlrhIsF9kHqpIyyAecpKuDnvnsBTWu6Tzz//vIWZHTp0qAl49iOiWZCFunyiXO6Z/ni/Pat36sBNg/Cx3nLu81MWYWcRn4jkoOhkAIFVH4GP5Ze+4E9OKDtEKmtB+HZQB/d3XD7CbijUiSAPBx4gHwMS9vmElZzzQl085eZckmgLExJ5Us1nEuXRPhZkQWgTmpdEm2BP+Dy/iiSDAKzT0Z5y20H6U6QIpJ2QZuUoLjDhCwZnhR8QL35kvOJJ5I8n4dLBRQ+Rzg+Hxz9KIiACIiAC6U2Aew0T6Xy84mg0yMMiHlg5sbySEJEsssJ8HYQlIqxUhkUUdwa2I0T9fQ5BhsCsnRFtAyFOedSHgGPyPRPiEYXh+xmiESu2r5N6EYaEcSNmdHZLhCOsWTcheDxlZJUQnC1btjThHxTl/hjmGSFCcaWgfUEhzAAD6y4Ls3CfRchjHIMbIfj8HCf6yQqBCGnvEuLLhxsDBISs58c+WL3yyismbr0+IHQeAhqWJB+TG5FOfp/Pdmb8YSAAExa0YbEayuc8IviDgwL4Eo7QR/7wx+u9aBJIOSGNUOZC4icX4LbBRYYvMI++eITGj4ovKRcOLgps5zj8rrAMkJcfQTAxGQQ/KC46PhEKCN9pymASY1aJHzAWax47Ef6GdimJgAiIgAikNwHuH1ijSdxnYiXEsLeGcr/yCbHpBaffHqs87kOIbZ/w70XMIR5J3DuDCVFLWdwjw21DjAYXR8Ea6y2yvgw/qQ7DUfh4nyfae1B4RzsOVxeffJ/9/7z7/vOZPnqhiy7w5fk6wm2jX55RuGxfrt/OuQsy8BZl6g2zZJtPiGYs2cHk28W24LkObvf7vGU9eLw+Fx6BlBPSBD9n9vN3331nVHHsJ+QMqzaRmHTAiJAJE1w8+ELzQ0LY4r/Ml5/RMKPRYPrggw9sQkDwUQvuHyxbSlksuJJdwv+Nx3FM1MAqoCQCIiACIpDeBLCs4pqBWFUSgawIYOFm5Uks3kFreVbHaF/+E0g5Ic1FCUHMl40Xqw4SlofEF49HMSxnyoiSSYXecs3IkkkSPP4688wzI4+4GJEzS5oymVQQTOzDL4wwevhOkRgpMprlGPYHE//jB8VECMoKPnoL5tNnERABERCB9CDgLaIS0ulxvvPSS9xYeCrOd0VCOi8kE3tsyglpYkIzg9YLZHDxOIsvHS/8q/D5wi0Dlw//KAq/aR5DBS3OHIuPEhMJgy4dbCfhAsIjo+BjFo7HDw0h7R8d/Sf3f/7iw0VQeR7XUF/QvyuYT59FQAREQARSnwA+ujw1VRIBEUhOAiklpHHP4OXFsT8lxGjklVXCShwOp5NVfvb5+mLlY6ZwVglfbV74VeHjFhTkWR2nfSIgAiIgAiIgAiIgAoVPIKWENJMBcdeIZj0ufNSxW8DMYqzXEtKxGWmPCIiACIiACIiACBQ1AiklpHGVwNcZn7NkSkx4lItHMp0xtVUEREAEREAEREAEnEspIU04O15KIiACIiACIpAXAsQ/JhRaIid1YeQhotSOHTsyRelgO66AzJ1hng1xhcOT1Zk0T5xi9oVjH+elnzpWBEQgbwTiW3Ukb3XoaBEQgXwkwKIIkydPdvPnz7cbbaKeyDAZd926dbYaGjHWCdmoyAL5eCJVdJEiwDLYiN5EfOcRzqys98Ybb9jvKex+iGgfP36869Kli60YyAqE4cRqeOynXYloU7h8/S8CIpA7Aillkc4dAh0lAslNgKcwBPfnZj19+nRzbWIlTeKWB1fLireXxFJfsmSJ27p1q0WmoQwm1jL/gHTeeefZ9njLUz4RSEYCWIiJApXbRIhVVh1kEMrgFksyv0vmw4Rd+di/ZcuWyMq3Tz/9tC3yFXzCSihXBsvkUxIBESg6BCSkc3gusPwRZYNY0/hjK4lAYRMgvCNhFQn5SAxzLMk8BmY5W0QwIR9ZEY182SWi2yxatMhu9CxpT4hHvueUjTDAQjdlyhR3wQUX6PFydjC1P+0IsIoeT25YIZd3wqeyGh5hUvkt8XtkUjmD3mguI7hsNGzY0I0ZM8YGs7Vq1YqaLwiWQS6/d9xCsFQTypXrQNA1BKGOWwgvJrfTBgQ5kaqIGIXIZxuWccpi4j5tZWGycEhY6qY88rHMNe4vzE+ir+ElsYPt1GcRSFUCKSWkWX2QUXt2CWtAmTJl3LHHHmuPxLmIsFALQoML3NKlS12xYsVsGfHwReSee+5xF154oatSpYqEdHagtb/ACHAD47vKd5hVr/hueyv1pk2b3KxZsxzL6rJIEQsBhb/XNBSxjCUa4cyS9/wGgjd7HzedOngM3a5dO904C+wMq6KiSgBRifBcu3atuUIhYBHP5cqVM/HM/9xzgr+lWH1BlJ5//vmO3+zQoUNdpUqVspz3g4hu06aNW79+fcTdg3oQwc8++6wZfPifkLC4hLzwwguucePG9uSK+xxtR0D37NnTnjQNHDjQLVu2zPJzTaHdc+bMMaHs20ydrM7LqsE+1Cz5iIU9YMCATALeH6N3EUhlAiklpPlhT5o0KdvzhUWZCwajbxZbwbrMqoYIBFZGxBqAGOFCGE5Y5LDMyUctTEb/FxUC3AD5LvPCUoSorly5ssUs5yY5YcIEu9FXqFAhYp2i7TyGJmHd5jcSLSGyS5YsaTdubsSUqyQC6UiA+wBzCFillic53C/q1KljwherML+VeMRzkB35sRjXqFHDPfroo/Z0CFeqWOUgvHv16mUGIF8Oop77WufOnd3MmTPtXsb9insbA+qFCxeakYiFwfz97u6773YPPviguZ507drV2vDuu++6N99809xJGjVqZG2gzwh07rUtWrSwATfbeFLLNtqDmEacK4lAuhBIKSHNUt3XXHNNpnPH6LtJkybu8ssvj1jPEBpY5xALU6dONcsb1jcSFxwed/nHZJkK0z8ikGQEuKF5UV28eHFbyp4b3+bNm92MGTPM9xnXj7Jly9pjWrqXXUQAfj/4enKTlpBOsi+EmpsnAtwfeOrJxEFENINRDDEYXhDO8Vqes2oEZdSrV88sw4MHDzaBzlPTaInfdv369TMZdmgjFvFOnTrZ7xzXDZ8Q6X369DERjLsJedmGYencc8+1fbiBcd3AfQsxjZsKQpq8+HtjjR4+fLg9laWtbMeKfu+991p9CHncPJREIF0IpJSQxlLGK5j4oePnhVjgczDhS8ojNC4aCAMscozAsTAQCYGLGJYFEo+tuMDESvjGLV++3C6wTNbi4oSPKXUriUB+EeA7jYWJiVEI3HgTNz8e63Lznzdvnvk9M4DkholVKbvEzdk/Gs4ur/bnLwGerHHuOZdKiSPA5Nq33nor8nSG38yqVavsSSbXd4QoPsJMys1p4pxx34llaeb3xWThd955x02bNs21b98+ahUc78877cA9C6GPmKW9/B9MCFz8rhHmvm7cuBgI4ArGPc77VrON7xX3Na4VJJhwf6PsxYsXR4rmf64buH1wHZGQjqDRhzQgkFlZJnmH/YUh3A22c0EI78fqjEV6w4YNrmnTpnYR4KKFtYHEYzCfjj/++JhC+scff3S33nqrGzJkSKY6cBd56qmnbOTuy9G7CCSSADc4brh818IDxezqYfDHzReLE76OHM/NPR5BTr080cESpVS4BEaPHm3uOMzbiGcQVLitTZ7aEYVYm3l66e8dMMYXGnHJ/QMRivEmp9xxBVmwYIEJUl92kAy/QYw3GHUQ01iHoyXC6PFkCDcOjD8kykPYEh0knNgX/n0zX4LffrR2cPxLL73kRowYYUXRd+rBhSVaatCggXGJtk/bRCBVCaSUkM7rSUKQ4CvGRRGLAH5mPDoj4WsaLSEonnnmGZt8hX82kxi5UHHBwaLdv39/288ELyURSDQBvn+EyOLJh7dMxaoD6xTiGYHADZoXx9asWdMxUMTCzI0ZgcBkpawSM/6ZuIj/tVLhEuB6hdsOVlJvTSzcFqVG7QwUEdF8x73I5DPiGf9grNHEe+Yp5oknnmih8rjO8xSTe4A/JhoNJrUjdrNKCGFcNHCv4MVvPZg4nnsPvs1Ygbl34aLFvWvjxo3mphHMn4jP9AsmxLQOC3LK5/tH/UoikE4EJKQDZ5uRORcvLgYICW5M2QkKwgnhG/b2229nsjxXq1bNHgOOHTvW/MYkpAOg9bHACCCeEcdMKuLminjmM5a1jh07ZooHzWNdBoBMqGUAGUsIUCblEFFASQTSkQBPbhDVvHDT4LeFqEbwYpBhwi7GF0Q11t5oojM7bhxz8cUX229t4sSJu2XHNXHUqFHmI80Ev6C7Bm4niU60h/sYfccNJJrfdnaDg0S3SeWJQFEgICGdx7OAXzVWPgQzM5eDiYkZiBbibSqJQEERwHKFHyOWZVw3uMmvWbPGxDOPXvF9jJawNOFrzXeaASQ347AAoFwfaoubqVLhE2ByaFYDn8JvYWq3AAMM4pkX4hY/4rlz55oFGUHN0yLOEQYanh7EGqBGo4QYp1zcQCg7KFT5nfM/E+VxzWISMWVzz/HuidHKzO02rgU8caWOxx9/3HXo0MH6xkCB+nnSxfWB60isqD+5rVvHiUBRJiAhncezwyM6LH6sKMdIPVoiNi8+2EoikF8EuKkinPG9xGcfMYx4xmWDsFws8hAWxdHawqRcbtosyoLvJy4D3PyxQvP4GJcOyubRtlLRIIDVknMULTZ40Whh+rSCWOs8qalYsaItfoKoZq4NYpcnPkzCw53Kx1/Ojgy/2datW9vgdeTIkZmyUxe/b6JokBjYkp/JxzMz/KYTnRDQXB/wxybGNe4dV111lT3V4pqDIQm3joceekhCOtHwVV6RJiAhncfTw82LiyQXlVhRPbyfdR6r0uEiEJUAliiszszU58aNrzRhuc4+++wc+8wiyFiciJn/hMfjf9ydsDSxjX0It1iDxqgN1MZ8JYA7AS4GiDeJ6cShxoKc2+85ohNrMi/cqFjlkN/me++9ZxbbUhkrDwatywhg8mLBDtfJdiYeMoDF9cpHxCDfk08+6a6++morl4ny/Pb5zRLr+Y477ohEnaI9DIqpl/387xMWZQbN/M7Dg218tDnOb+deRohZtuFW8uKLL5rlnbZQbt26dbMNn+nr1bsIpAoBCekYZxKLAS4b2SUe25Fv9uzZrlu3bplG4lgJ8Z8LXrSyK0/7RSCnBPzkQR6pEr6Ox8h5+c5xLDd0XliaeOHr2bx588gNNadtVP78I0AIT6yTXG+UEkeAGOl5/S3RGkQmv01e1atXt6c6Pjydby0ilKc8rHsQdotAxHIc1meeCuGn7H/flMkCYgxyuWchcLEKc09igRT2kxexTJxoBtjhyYAI9Ztvvtm+Q+EJy0xmpFwvpGkvTBDvbdu2tfkU7GfQgc90dnOKfH/1LgKpREBCOnQ2sehwUcPHDHcNZkFzIcTiE82yzMWDR3kEtMcySDxqLlZcKAkrRlmEJqMcJRHIDwJMiiUcVfgmmIi6eAzNS0kE0o1AtJVt88qAewlPLhn4BMUp2xHKsRJCNdZ+7ln4LgcT14Jg+6kLwcwrnBC/RB2JlsLl+jxZlefz6F0E0oWAhHToTDPaRvi+//779mgMYcxFrl+/flGjFHARe/75513v3r3tcRoWAwLeE2sTH1UmdxEuSUkEREAE8oMAIojH/VynlERABERABAqWQMoLaSb5lS9fPvIoLIiXUT6iOTjSx4LcqlUr81+bP3++PdZCLHtrH4/eEMbBmxaTPJjwMWHCBFsljsdqlImVkEftim4QpK7PIiACiSRQo0YNe/LF43slERABERCBgiWQ8lfe++67z0Rv8DGaR8zjtTZt2uwmsrHuMBuZ2cmIYlw6vJC+6667LL//n7LwQcP1o3v37nYMftHc1BDq0er19etdBERABPJKYNmyZRbzHss0hgAlERABERCBgiOQ8kI6PHEjiBaRG2tyBOI4mk90rPyUyzFMyuKlJAIiIAIFQYAVKQlPWCojIoOSCIiACIhAwRL4R8FWp9pEQAREQAREQAREQAREIDUIpLxFOjVOk3ohAiIgAtEJEDmIWPZyI4vOR1uLLgFcJ7dt22Zh/XCXJFwfLpFFMbHgFUEEcP3ELVRJBDwBCWlPQu8iIAIikIQEmNSMO1lw3kYSdiOtm0wMcBZcIepTMCEqCVmHS2FeB0osqoQQxI+eWNSFnWgPizuxpDmxqBkQ3nPPPRZCFjfJcGIV4W+//Xa39R0IBgAjxG3wOFYcZhEc9tNf3rNLLMOOsD/88MMtnrcvj8VzvvzyS3fDDTe4e++9N2YAg+zK1/7UJCAhnZrnVb0SARFIEwJz5861KEFEJ4pHLKQJlqTqJhPU3377bffCCy9kajfimXPKYipdunSxGNS5HTB99913FqoV0Y5g9SIxU4UF+A9LmbPS42WXXWb+/cSrZ+AQq13r1q1zTzzxhFu1alWmVnpGt99+u6tXr17k+K1bt7qOHTvab2Pw4MFx/TYYaLA4Td++fV21atUyRedikLNo0aLdBjuZGqN/0pKAhHRannZ1WgREIFUIbMxYHp5J1VrZMHnPKOcO4YeQu+KKK+x8MoEUCyxrGhBedfz48a5nz54WGSo30Vlwo2AVTCy1RSH16NHDhC9LmfsFarKaqI+QZW0GVhNmpUc/oGD5dZZEZ7VFQtCy9gOJMi+99FJb+jxeXljJV65c6Xbu3FkUEKkNSUJAQjpJTpSaKQIiIAIikNoE8HVv3769+eHSUyzVHTp0MMvtiBEj3KuvvmrrGJx55pkRVw9E3/fff++2b99u6x9wHKEQgyuSIkJZrRe3BSy+ixcvtneEK24PPi/iHTGP9RpxzyqMhxxySMTKS9nZJYQ69bC6L3Wx8urBBx8caS8rACOIsTCfddZZNligPqzRsVZSDNaJpRjrvBfd1Ed/cbug7azbQL1E3WJxND77aFuwwkWDgSftol6EOOFqEea0i/LWr19vy6379SIqVqwYbIK5onAs9XHOEPfRonxlOkj/pCyBlBPSXDBmzJhhP87gWeOHVrp0afN9Cm7P6jOPTPlhcdHix+lHwFkdo30iIAIiIAIikBsCuCkg+nzYVt4RsiVLljQx+uSTT7pp06a5smXLOlbhJeFnvHr16kxPJBCl/fv3t8XFuG8tWbLErNn4I5OaN29u7yzmc8stt7jTTz/dRCFWXdwXENQkBObDDz/sWrRoEZeYRszjQzxu3DgrAxHrVwbGOkzf8ENu3bq1idE333zT+kNdJ5xwgt27OSarhHUZ8UoffTr11FNNqONr7RPWZSzU3McnTZpkm7/66iv34IMPmrWa41955RVrBwunIZaHDRvmyMN6EXDzbeGpj08MEujjyJEj7Vjy4FIyYMCAIuF77tup94IjkHJCmh8PP3xG38HEj5kf4PDhw139+vWDu2J+xl8NC8D9999vI96YGbVDBERABAqJAK4AXNvifXxdSM1UtbkkgFBDUF9wwQXunXfeMdGMFdUL6RtvvNExEc8nLL6dOnUygYzxqHLlymZEwvf35ZdfNmHbu3dvE4nFixe3SBk//vij69Wrl5s8ebK7/PLLzXUCUYpoZ3EyJt+dffbZEWHp6wq+I5ARqbihMAEW8U0Z3I/xOUa4Ivqx3HJPveSSS6xPLVu2tHLDkwWDZWf3ecuWLWaNZ2E0L36ZIOit9f54BgiweuONN8w4hmXbG9gQ+VijBw0aZPwQ594i7cvECt21a1dXokQJ169fP+vTlClTTCfQfhaA85ZyX6feU59AyglpfjxYpbnocGHgQkFixM4PlskHH3zwQVzLdt95552OCw4XEVmjU//HoB6KQDIS2Lx5s1nYeFTtb/zJ2A+1OWsCPuzamDFjXMOGDSMuDIhW7ns+4ZJRtWpVE76seomQJqpFgwYN3IIFC8xdBIu0jwLCOxMdsXzjh41g9oOypk2buj59+pj1Fb9kLyh9XcH3jz76yFxQsDYPHDgwcu+l3iZNmrjXXnvN1a5d21wqKJd6cdPwbaHsrMr3deHnjZXZC9Z58+aZWB87dqw76aSTfLYs3+vWrWtW5VIZixhhdff10qannnrKGMCVfSS/H7F8zTXXuG7duhkv8sMa/gxuGJD4dmXZAO1MKQIpJ6T92eGiw0iTCwiJR2Fz5syxi8msWbPsIsTkDkb4VapUMYszj7TWrl1rI3QeeeHjxYWnZs2a9qPxZfOOMJ8/f76NbhHrPBYqV65cJsHNj8qXyTG4l3BR44KlJAIiIAKJIIBFrEKFCnatCz7uTkTZKqPoEGCQxAurqXe9oHWIORJuFRiRuK9hOSX5CagIQS8Yye8/k4eyEKFs43gEcTDh9oH/8dChQ4ObM31mIiP3Q8pu1aqV+Xh78UlsaFwlcBvZsGGD3V/9gI/3YFsyFRrjHyJw8PIJEcsL6znuIX6yod8f7Z024a7p2fk8/n/fLt9OP1BhgIEbB8Y13z+s0/iZE2qPWNNK6UcgZYW0/5L7U8r/WGyCickOhAFicgeTCxiNkw/L9RlnnGE+Y4xOCT/Ej47kXUd4XMVEEF8Pj7CYmIEQ5+LFsr1YtJlx7fOwnUdbbOcH77cH26TPIiACIiACIhAmgODlhfD0go97CsYe3CSwiHJPQfwh/OINhYj7A/cy/JVxeYh2X0JA4l/tJyWG24aQxqWESXdYhcNlsJ2nutTjRWm4jHj/x9UEK3awfzxl5p786KOPus8//9yVyrA0Z5fCbcwuf6z9sMEKndd+xSpf24s+gZQV0mH0fMm9H5kfZZKHGbyIZazOXJCwFvPDwCcNq3MwUQY+1uQndE+7du3s8RWj0NmzZ7unn37ashNYn9E7F5apU6eawOaCx0gf/ysmKTDCj3VRCtapzyIgAiKQFQEECte0RAmDrOrSvsIjgJUZP2QMPUS74HxPnz7dfJq511x33XW2UAhPPrEsI67jSf57Q/62bdtGfK/DxyLgs0qUw30uaC33+dnO/dPX5bfn5p2Jl7ifBJ++nHPOOebugqsIxqvOnTvnpmgdIwK5IpD1LyNXRRaNgxDNPOrix88PGz9CxC0TNIKhbHjEg6jFnzoosKP1gpH7Y489Zo92OMb7X5MXC3ObNm2sLgLNE16I+oI+W/hcvf7669YW2iYhHY2ytomACOSEwPnnn28Df83jyAm15MmLAMWSSzQq7mNYY1kFkMSEN+4luPcgIr2lGrfCWInygqIWQYrhiHslIpx7li/Hl8E9NKv7I989/IeJeLFixQpbBMWXgYhmGyKauhIhpn27gu/cTynbRyYJ7svpZ9qsJALxEkhZIf3iiy8aA/yXENWjRo2yx0633nqrYzauTzySKZXxGCiri4TPi/UaFw4mShB+J5j8RQLrNJYDAuk///zzkfiVPi+rMnERzOpC5/PqXQREQASyI8C1SyI6O0rJsR8Bxz0EizIJlwnCreG6wKIj+OY2btzYRCv7eYKKGyIClWMQr7gfhv2cycs+vifEnOZexrFs4wks4d9wOaQOolLg88v3ivsd96pPP/3U5hfFEsGUy2RE5hwRGQRXSCJoINhxd+RJLHORMDh5gU2bcpPwEUcse7HLO33n6S+fMY7lNtEP+rh8+XJXqVKlyH1eMaJzSzQ9jktZIc0FB6uwF8hMmHjooYcckwhze9PBKsAPlbJ9ueGvCSN3fuQ8guPiFy2fX8GKNimJgAiIQF4IECuXyYa4pwUfd+elTB1bOAS4d7z00ktmIeZeghEISzRuhtx3ELxMoveJiBqEP0SoMpEdqzJWYaJwhBMWY8Qty3LffffdNjkewYybBFGu2I7rIpE+amdE1/Axn3nCikWZyXSxhDR1ITxp3+OPP26RPnhSghAfmeHKiPjFdST4FDfcvnj///jjj038+/s4ZWOgIiY0bFhOPat2ZlUPQQoQ4iw3zoADoxdl8cRaSQRiEUhZIU14oJtuuikSIYPRd25/XB4eI3dG00TzYKQdLflRPzOHuShx8YuWeJSmJAIiIAIiIALcN3h6ygv3P58wxHDfIdwaghn/4KBFF99gBlAIbZa2RkgzCQ/xGnY/xPUB9w8EM9GkEKQYlhiEIahZZITjWbyFUHXc4/if+hHq2d0/Ed7MHeK4t956yyKB0A/uvQh+xHpwguBpp51mi8z4vmb3TvlYuuknEwqDiTYykBg9enTkngsnhHAwigf1w9C7xgTL4DNCmrZSHlFA6AvHEHGEQSrRv8KDVbggvrGKe3EfLlf/pzaBlBXSuF7wA/bh7xJxGrnIcWHjIsEFKfgICWs11gNG3NSJ3xoWcSaGBB8LYWXg0V12F6VEtFdliIAIpD4BBuXc7HVNSd5zjXDD9xmxGUyINu4niMiggPZ5uLcgmnHVQMhx30MM8n1gYRTmBPnvBcdjYEJ443qI2wj7Wb6bxHFMmMdQhDWWexX1ct8Li0dff/gdsY6AZ7If90Pq5His4eH2s+AZ7fXtC5cV/h/fbdxPsHKHE4xof7As2HD/veiiiyLbuWdjXaZfwbzB8po1a2ZWelw0EdL+vo81Hz7eSu2P4dyx+AwuNWgOpfQjkLJCOj9OJRccHhux2iE/XB5j8eNlEiIxqnHnIF4mj5e4QLDKERE88MnmIkAMTR6PcQwTD2ONivOj7SpTBEQgNQkwqGcAL2tY8p5fDDSl4gjZFq2HHIuVNZywnoYT4hFRyytaQuxyb+OV28T3kHtbdve3aO3Lqk6+4zlxDYnGFHGNn3Z2iXs0r2BCfAfdavw+6on15Nnn0XtqE5CQzsH55QfD0qaMUidNmmQh7xjh4tf29ddf22QLLlQ8suIxGT7ZhMrjB4iYZsIGo9ZOGcu31qpVKwc1K6sIiIAIRCeAuEAgxLKwRT9KW0VABERABBJBIOWENI+0iKrB6J7PWSUWaOHRDwupREvsp6ygjxWj1AceeMDNnDnTvfvuu/Z4jJF39+7d3ZlnnmnFUC8WZ4LQE5YI/zUekyGemZDBvvBoN1r92iYCIiAC2RFgpVbClhEVIbtrXnZlab8IiIAIiEDOCKSckMb6S2B6UnZ+XYjt2267zSYWRMOGO8b1119vqxYF9yOCWQaVMET4mfEoK1wXflNYoVk2HP9p8rGNG50sR0Ga+iwCIpAXAvi7Mpj34cDyUpaOFQEREAERyBmBlBPS+HjxmDOehKtGVtEzEL68YiXEc1hAh/PSnnjyhY/T/yIgAiIgAiIgAiIgAkWbQMoJ6aKNW60TAREQgcQSwKWMyU6EKlNKDgIYcZhXQwQoPaFMjnOWjK0k+goBD/i+6XuWf2dQV978Y6uSRUAERCDfCSCiiRIUDi+W7xWrglwTYEXd9u3b23nLdSE6UASyIYArKXPACHOolH8EJKTzj61KFgEREIF8JzB37lxbqILwnFielIo+AebVMM+GSehKIpCfBLgmaBJyfhJ2TkI6f/mqdBEQARHIVwIsHEEYTk02zFfMCS9c4ibhSFWgCBQKgX8USq2qVAREQAREQAREQAREQASSnICEdA5O4MSJE9306dNtUZWsDiPU3apVqxz5v/nmm6yyxrUPixOrKbKgi5IIiIAIBAmwUhtuHfKRDlLRZxEQAREoGAIp59rxyy+/uPfee88RWzWYiAldpkyZbJctDR4T/sxCLDVr1nRVq1bdLbZ0MC+PWOfNm+fGjRvnnnjiCVeiRAkT3wsXLnRr1661ZcaDi7wEj432mWXFWSlxwIABrnz58tGyxLVt5cqVDn/KYPJLprLELO3Mi48lqzYuX77cbdu2zZ133nm2omOwLn0WARFIPIEGDRrY71ZLhCeerUoUAREQgewIpJyQRsyxNPeyZcsy9Z3QL9xoXnjhBXfhhRdm2hfvPywF/scff9gS4dkdQz5EPcuJk/j/pZdecmPHjnUPP/xwptUSsyvrr7/+cjt37szTxBTasWnTJltgJlgfXPyrfv36tmpjrJUeg8dF+4wl/sMPP3Tjx4+35dJZHEdJBEQgfwkMHz7clS1b1p199tlZDvDztxUqXQREQATSk0DKCWkEIysJNmnSxPXp08cdcsghdmaxxrISISGHsMrmxCKciK8GovLuu+92N998szv00EMTUWSOy8BSzgIzzz77rKtYsaIdv2vXLrdkyRL34osvmvsIA5H777/flS5dOsflcwCz0Bk0KImACBQMAX6zDLb9oL1galUtIiACIiACEEg5Ie1PKz6DLAHuRevxxx9vAvqCCy5ws2fPdieeeKK5WcycOdNVq1bNnXHGGf5Qh7icNWuW3Ziw8gRjMHKz4sa1evVqN2fOHMuDqweLIhAbNFbCZQIf5y+//NLVrl07sqIi5X3++ecmZrEYI0QrV65sLhzEhw0GUScv/tKLFy92a9assRikZ511lsNtJd7HupR3zDHHOHj4hLtIo0aNTOjjinL00UfbZ9/vH3/80TEQoV7YkMhTvXp1Y0yZWN/ffvttN3XqVPfVV1+5xx9/PNJH2Jx77rl2HOxwVcH1Zfv27baQBPwY2OTFrcQK1x8REAEREAEREAERKEACKSukozE84ogjIpuxzjIhEDcLXEGCQhrrziuvvGJCNbidgxHDffv2dVOmTHG4MpAQkr169TJrc1Zi+rXXXnNbtmwxocxxCGPcILCc79ixg02WvOUY9xTfZupCuI8YMcLcJ8hIPgYEd9xxh1nb8yJEixcv7m666SZrBxZq6vbiF/Hfu3dvE8D/aeF/2o7Apk8tWrQwFitWrDCBzBOBp556ymd1V155pZWFcO7QoYObMWNGpqXXKef111+3pwh56UOkQn0QgTQiwDWHVQ2Dg+406r66KgIiIAKFSiBthDSileUymdker/U22pnBknrxxRe7d955x1YMwsKKuB08eLCrU6dORHxGOza8jYget912m2OyULdu3SwWLDdDrL/Tpk3LNAuf5WRHjRrlatWq5T744AN30EEHuaVLl5obBpMrsQ4zWTAvieOZdIgfN6K9Ro0aZiVGrBOBBOHuE9bzpk2bui5durh69eq5Aw880F111VUW+J1BxsiRIx3inIRbC+4eY8aMcZs3b7YBx6WXXmrbf/jhB9e2bVvXsmVLt3HjRnfsscf6KvQuAiIQB4HLL7/cfqcahMYBS1lEQAREIMEEUlZI4wLBi4S7xIYNG9ywYcNM3Hn/4NywbN26tYlXLxIp44orrjDh+PLLL+dISCMisX4jYBGQfmUyrNCIcm/xpg7y3HjjjWb59jfMAw44wCzCRMnAop1XIU09uL68//775sKBZZmoHli8WDyAttImBiWIa9w3unfv7piESVtggqDGD5u2eP90ysUS/+6777pmzZq5zp07R1ZaIh/W/3POOcfOkYQ0tJREIH4CixYtst8a7lp5MRLEX6NyioAIiIAIeAIpK6QRtaTDDjvM4TpAxIxSGT7T/fr1c+XKlfP9z/E7QjEcrxU/7E6dOpklNycFEh2DGLCDBg0y8XnqqaeaGCVMHxZnBKlPiFmsxV5Esx3xirUXEY3ITURCKFMWlnH/qBhBTVg7LMaEFcRP+osvvjAf83jrxPr+008/mVsK5yOcsFgH3VvC+/W/CIhAdAJMnq5QoYINxiWkozPSVhEQARHILwIpK6SPOuoo84Fev369sWNC4X333RdxVwhae/MLbnblIoIR0bfccov5CCP+se5edNFFFqsa3+OslpFF0IdFfXZ1ZrUfSzO8mCyIiEe0Y81nAiF+3OwvVqxYZB9tjTeRFzeYrVu3Wii/8HFECSkK5yTcLv0vAiIgAiIgAiIgArEIpKyQxu+YyXO4S5B89A4PAgEatPj67bl5RwDi15ybhHWcVQux9PJiwt7TTz/tiA2L+MdiXVAJH3J8wLFIUy98sCSzGAwuHriW4BYDSwQ+MaM7duwYV/O8MMcXnFe0AUCizkdcDVImEUgRAvweGeBG+02lSBfVDREQAREosgRSVkhj7UVEhwW0PxPcdHCNwE2BUHZYW3FlQBTjW40FlZtTOOGCEJx0x2dWK5w8ebJFzgjnz+r/X3/91Sbh0Q5C0vGqVKmShb7DRxoRWxBCGqszdRFBhEgmxNpmIEKCBX3u0aOHa9WqlQlqtsOJ46IltmN9Dib8vvGhJoQeVmncWII3fsLnBbkGj9VnERCB2AQI0cm1isgdSiIgAiIgAgVLIG2vvIhmJsMx2Y3VDhGxWIcRxcSZDoaeC56Sjz/+2CzGCE38EZlAR7g4xDBLeOckEYmDsG8klh7fb7/9TIASEYSEn3SiEyIX67m3/iKUmayE/zP9KJXhR968efOIJZ9+cYMmZB0TDBHE+EzDCOt1MJGPGzr9wk2ldka8bBgRDxvOxJMmugmc2rRpY7GsOWb+/Pk2GZF6iaGtJAIiED8BJhuTMBoE51DEX4JyioAIiIAI5JZA2gppgGHtxV3hnnvuMT9lhDRW0aysO9y0COOGWwM3rUmTJpkIJpzbySefnOPzQAg7QsshIHGfwEJOHYSDQ9QmOmH5HTJkSMRSjyUav2h8lLFsXXLJJea+4ScaIpxZrAUBTOg6btYIaUQ/Vvxgwt3j9NNPtwmexOcmhB+CHZ9vwuThBsKxuK0wUPFRBgi1x2QphLSSCIhAzggsWLDAfj8YAzTZMGfslFsEREAE8kog5YQ0As+LUD5nldjfsGFDs7iykiEJ1wriIvM/kTKCZeDagHsCLiPMlMd9oWfPnq5du3YmIL2rAu+4LhDqLWhVJgY0fsg+dB4i9YYbbrCVCRG0CFOEJ/GY69atG6mbiZMI9eBqhL5fLJoSLNNvD78jjAktR3SRYCISCPGgCT9Hm7HSexFNPm7M11xzjYl8QgjSRtxm8HPGuv3cc89F3D3oN0KapdAnTJhgLiHeIk1Z3OhZ2IV+406DewjlIbI5Z7ldlpyylURABERABERABESgoAnskSFkMpsVC7oFeayPxUjwZz7vvPNMtGJR9v65iOCgKIxVVfAYrKoIQiynoPH/cyzWYspDYLMfIYhrQlBsk4/j2MekPY73j1s5BvEZ3EZ+6sdfmnf2ebcL9pH8fupifzDFKjOYx3/G15n8weTL9IOA4L7gZ8+I9mOxh4MvD2EdPN73n7roS7jNlMs++FBu+PhgvfqcNQGeFOByg0+9rJFZs0rVvbim8R2oUqVK1N9aqvZb/RIBERCBokAg5SzSCDpcJHKSoh2DWA6nYLnsj5aHYxCZCMiwII4mKMlP/YjJWCmr/bHKjFZWtDZFyxdtWzRGscqL1f9gubQ7J20PHqvPIiAC/yPAky6uTRpI/Y+JPomACIhAQRH4R0FVpHpEQAREQAQST2D79u32tCzJHy4mHoxKFAEREIECICAhXQCQVYUIiIAI5BeBhQsXuo0ZUXdwJ1MSAREQAREoWAIS0gXLW7WJgAiIQEIJ7Ny5MzKnI6EFqzAREAEREIFsCUhIZ4tIGURABERABERABERABERgdwJJP9mQBUOGDh3qbr755kyRI3bvqraIQOoRILzibbfdpu9+6p3auHvUuHFji1gUntwcdwHKKAIiIAIikGsCSR/+jjBq3377rWOhESURSDcCRD5h1chgRJl0Y5Du/WWlUgwKxJv3oTbTnYn6LwIiIAIFRSDpLdIICRb6UBIBERCBdCRALP3y5cvbiqIS0un4DVCfRUAECpOAfKQLk77qFgEREIE8EiBaBwslKfxdHkHqcBEQARHIBQEJ6VxA0yEiIAIiIAIiIAIiIAIikPQ+0jqFIiACIpDOBD799FN34IEHykc6nb8E6rsIiEChEZCQLjT0qlgEREAE8k6AONJE7OC1xx575L1AlSACIiACIhA3gaSfbBh3T5VRBESg0Ajgv0uEHXx5lRJLYMiQIa5cuXLurLPOcvvtt19iC1dpNjhRVBx9EURABGIRkJCORUbbRUAEEkbg119/dfPnz3c//vij23vvvRNWrgpytjT4pk2b3F9//eX22kuX9ER/J/jOtmzZ0u27776JLlrliYAIpAABXXVT4CSqCyJQ1Als27bN4ctLrOPixYsX9eYmVftq166dVO1NtsYOGzbM1apVS2FWk+3Eqb0iUEAEJKQLCLSqEYF0J3DEEUe4KlWquJIlS6Y7CvU/iQi88MILWugmic6XmioCBU1A4e8KmrjqEwEREAEREAEREAERSAkCEtIpcRrVCREQAREQAREQAREQgYImICFd0MRVnwiIgAiIgAiIgAiIQEoQkJBOidOoToiACOQ3gUWLFrk77rgjv6tR+SIgAiIgAklEQJMNk+hkqakikEoE7rnnHvftt99m6hKLilx00UWubNmy7qCDDsq0r7D/WbhwoXvggQfcXXfdZbGFiYv93nvvuVWrVrkbbrgh4c377bff3AcffOAmTpyYqexTTz3V1axZ0yZt5iQkGzG8P/nkEzd79mzXtm1bV6JEiUzl6h8REAEREIGcE5CQzjkzHSECIpAAAqNGjXLr1q3LVBJCmnjTp59+uuvbt6879thjM+0vSv8gpGfNmuXeffddd/311yd8VUGE9Ny5c90TTzzhWNDGp1KlSrkyZcq41q1bu+bNm7t///vffleW7whpQhCOGTPG1a9fX0I6S1raKQIiIALxEZCQjo+TcomACOQTgfvvv9/5leNYuGX16tVu9OjRtsDIU089lfahx0455RQTzYceeqgJahYIef311x3cDj74YHfhhRdqkZt8+m6qWBEQARHIjoCEdHaEtF8ERCBfCXTt2tUhEkl//PGHW79+vfv888/dvHnz3M6dOzNZXL/77juzWE+ePNlt3rzZNWjQwDVp0sQdffTRJrixunbp0sWddtpprk+fPplEOFbdpUuXuqFDh7pu3bq5qlWrui+//NKsvh9++KHbsGGDteGCCy5wjRs3tgU4Yq3CiJht06aNHfPDDz9YG/bYYw934oknunbt2rmVK1e6r776ynXo0MHaZgX/9w+L0/Tr18916tTJVa9ePVMbg/n858MPP9zKRFDTBwYbxx9/vLv33nvdihUrHAuy+HZ+/fXX5g6C1fn//u//zIWjcuXK1peZM2e6xx9/3LhdddVVrlixYlZFo0aNXMeOHbW8uAeudxEQARHIAQEJ6RzAUlYREIH8JYBrx2GHHeYOOeQQt337dvePf/xvPjQicciQIe7VV191iNEdO3aYz++LL77o7rzzTle3bl0TlCeffLIbPHiwa9q0qeOzT7hiLF682C1YsMD17NnTNk+fPt3hq41Apz4SfsSUeffdd7vzzjsvIlJt53//UNbUqVMjLhfej7lixYom7sn2zjvvuAMPPNB17949k1hm0iLHIqQR3zlJ5Md6zyAAH2faweCBRN9uvfVW99lnn9mLbQj6UhmuIA8++KDbuHGj5UGMI6p9YrVJfKb3228/v0nvIiACIiACcRKQkI4TlLKJgAjkPwEE7YQJE9yyZcvMsuytpr/88ot7+eWXzSf50ksvdQjWffbZxyzKjzzyiOvdu7cbN26cbb/ssssc2xCLQSGNkLzvvvtMgGLdJdWpU8cdeeSRkY5hxSUfllsm+p1xxhkm6iMZ/vsBv+Q33njD2rRkyRKHCwoJ4Vy6dGkT5uPHjzeLMRZrBgck+vHkk0+a2CZfcKBgGeL8g//0X3/9Fcm9ZcsW8ymfM2eOGzRokPlQs5PBAcIawY3lGSs+Ah+fbu9/zkqT+++/f6QsfRABERABEYifgIR0/KyUUwREIB8InHvuuRGLLeIQC2uLFi1MSHuhiVAkagbLjOMKghUV6ywCEQvt7bffbm4W5cuXN4GI2B44cKC5RLD/zz//dGvXrjV3h5tuusn5aBeISS8o6RrWWkTqa6+9ZmKY46IlLOeIcCYDUm69evUyWZep85hjjnFYn/H59kIaCzHCFteS3EQloT2wQOjj1sGggbo+/vhjawfbsS4fcMAB1mzyI95p71577eXg8/7777uzzz7bIqNE65u2iYAIiIAIxE9AQjp+VsopAiKQDwQIH+cTFl3Cy+GzG4xGQSQPRGivXr1MRHuBjSA+55xzLO8333xjVlpcFHCbGDZsmPvoo49crVq1zK+Yz5TP/z5hgSYEH23AXxorM64d33//vfk7I6xzk7CWX3LJJVYukT3wU6atAwYMsLB1WNS9X3N25ePXjVBHCNMeBhr4aCOi8Q9HJBOWD3cXBiVeRFMudXiO+J8riYAIiIAIJJaAhHRieao0ERCBHBJAKBYvXtzhA42l9JlnnnGdO3fOZOHFSowQZTKfF9G+Giyye+65pwlML3yJtYzFGss0ExexAuMagi+1twRjzX766afNFQJxymvXrl1m5fZl5+WdWNj4MSPMEekIXj8BEct6vP7RTLj86aefIk0hdB1+10xUpHzKwYWDwYNiQ0cw6YMIiIAIFAiB/83kKZDqVIkIiIAIZCZAxI3jjjvOJtDhV4xlFR/nsFsFghKrczjhDuIFtN+HVfq5556zCYlr1qyxSB/sw2LrBSxWaGJAE5MZ6zWROzZt2mSiFLeNvCYsweeff77FbmZS41tvvWXtL1euXCTcXzx11KhRwyzriGVeWM2xRHsR7cuAG4MBJREQAREQgYIjICFdcKxVkwiIQBYEsDQTeaN///7u+eeft1jJPjtiEsFLtIugdZb9WJvxAyaEHu4PPhFfGWE5cuRIi2bRqlUrE+x+P64eW7dudTfeeKNr1qyZ+QwTag4BHCzH58/pO4KdqB8nnHCCI1wfEUfat2/vKlWqFBHz8ZQJF1xSaBcvb4H3AwLKYPIg/fF+4PGUqzwiIAIiIAJ5JyAhnXeGKkEERCBBBPAtJj4zESbuuOMORxQKrM1M3MNVAivypEmTzGqNnzCT7IgXTaQN8uA+4RPCmqW7H330UXMLufjiizMJWAQqftfEXMatBDGOVXfatGn27suJ9Y47Cf7IHIcPN+/EeMbv2ies7bRjypQp5mJCHxDFiU64edAWLO4sAY71nvYQG3vs2LHGifbCF6s+ln8ipJAHFxclERABERCB3BGQkM4dNx0lAiKQTwSIcIGPNELv6quvdsuXLzfxecUVV1jUiR49elikDayztWvXNhH97LPPuipVquzWIqzQ3qKLiA0m4kxfc801Fg6OKCCsEkhIOhZUwbKbXUK0s5Q57cSSTqg+LOczZsyIHIp4pY5q1apZlA/C6QXFfiRjHj+wQAsLzeBDzrLhiHXawyTH2267zXzIaQsL1fAiogmc6TODDYS3kgiIgAiIQM4JSEjnnJmOEAERSAAB3CiIYYzACyZcFhCcL730kkWnIPYzkwBLZSwswiIpDz30kKtZs6Ydywp9WK1bt25t1tZgOXxGbCMqiWqBS0QwISRxiUCY0w4iY7BwCSHrCL/HojDBtmHxxertExExOIZ2XnTRRVYGbhzBcHrkRdAinhHb4X2+rGjvDACYGAmneCJ8MKjA0oxrDO1AXDO5km1MviQhtOljsM/4W8dTfrQ2apsIiIAIpDuBPTIem+YuvlO6k1P/RUAE4iZA5AzcMLDMIloLKrFIS9++fU1s42ZR0InLKysxPvHEE2b5xVoc9G0u6PaovpwTuPLKK21wEly4J+el6AgREIFUJSCLdKqeWfVLBNKcAP7KTDRkgh+uG4WR8ONGzLOkN6H9JKIL4yyoThEQARHIPwIS0vnHViWLgAgUIgEs4Pgrt2zZslAELNZo3E5Y8AX/bNxMlERABERABFKLgIR0ap1P9UYEROC/BLAGE8f5lFNOKRQmCOnNmzfbJEh8uomYoSQCIiACIpBaBP4XdDW1+qXeiIAIpDmBxo0bO16FlZgsyGRIJREQAREQgdQlIIt06p5b9UwEREAEREAEREAERCAfCUhI5yNcFS0CIiACIiACIiACIpC6BCSkU/fcqmciIAI5JMDiKs8884ybPn26++2333J4dMFlp20jRoxw7733nq2mWHA1qyYREAEREIEgAflIB2noswiIQIERYAlwlqt+5JFHdlsspcAaEarohx9+cC+//LJjcRMWhdl3331DOaL/y7LgH330kYnbMmXKOFZUzGvc6u3bt7sJEyaYoL/88sszVYyQfu2112wiI+3cb7/9Mu3Pz382bdrkPv30U1sRknpYMIYFcVjsRRMq85O8yhYBESiKBCSki+JZUZtEIA0IjB071q1bt85WKwyvOphs3SdmNaHuWKqcmNVE7GBpcCYc5jaxbDeW8Z9++sl169atUEL4hdv+999/u+7du7uvv/7affLJJ7abZcbpOxFS6HOyn8twn/W/CIiACGRFQEI6KzraJwIiIAJxENi2bZtj9UaWCv/555/dkiVLTACnWuxoFpQ59NBDzWJPRBL+R1RjOefVsGFDd/rpp8dBTFlEQAREIDUISEinxnlUL0QgZQlg3cXlYuHChSbWsGKfe+655k5QqlQpt/fee0f6PnfuXFuKfMqUKe6vv/4yi/CNN97oKleu7IoXLx7Jx4fff//drVixwr3yyitu6dKl7qyzznKlS5d2u3btypQvu3+w0q5atcqtXLnSlgHHxWPBggXuq6++2m0Rluuvv94tX77cDR061J1wwgmRov/8808T4VdffbWrX7++lYXld+PGjY7y2UaiH126dHElSpSIHIvFmvpZhhxOPXv2dPXq1dvNMozVnLZNmjTJLV682J166qmuU6dO1uegSwZtp33XXnutuYzgh41I7ty5sy1uM2DAAHPn8O4k1ImgfuONN2zxGc6XVnCMnB59EAERSHECEtIpfoLVPRFIZgKIsvXr17vBgwe7iRMnOiYD4ju8bNky8xG+9dZbXYsWLSJiun///iZCsZLit4ygQ4wef1W8IQQAABjdSURBVPzxbsyYMRExjVjGteTRRx91W7dutXJxVTjggAPc999/nyNkWKA5FuGOvzJ1zpo1y7399tvu5JNPjrSNQhkM4AaxY8eOTHXQ1g8++MA1bdrUttMG8tF/EqKchKhmpUYvpDds2GCxqrGG47tMv/jcp08f2+4FLdtfffVVN2jQIBO7cFy0aJFNVrz00ksdAp6+k7Cuf/jhh2Z5RnhTx5YtW2zwwn5YBlOxYsWsPbSV9imJgAiIQDoRkJBOp7OtvopAkhFgdcI333zThPPtt99uE/j23HNPm6T42GOPudmzZztWDTzyyCOtZ/fdd18mi/Iff/xhohAhjojFsotonTZtmrvzzjtdyZIlHZMeEaYIYSbRYY3NScJCjihv1qyZic/TTjvNrM1sRzAfdthhOSnO8lasWNGNGzfODR8+3P3yyy9u4MCBth1/5FIZVngs2CQs782bNzcrNfVgZaf9999/v7v44ovNcoy4xVLPoKFBgwauTp067sADD7TBw6hRo9zjjz/uDjrooN0Wj1m9erVZ/bHSY/XHgu6FuVX+3z+cIwY7WPxZRTJanmB+fRYBERCBVCIgIZ1KZ1N9EYEUI/Dxxx+78ePHm8sEIvCf//ynCTUE8v777+8eeOABE8iIWBIW4WDCSooAfPLJJ018sw9hunbtWhPf9957r7l0UC55EeREw4g3IWixeJOwjCPyEeVHHHGECXjEdG6ENNbhqlWrWt9xuzjnnHMyCVRv0abfuIsQMQOxyyCBAQHWeyzJRNQgwgfWbZj16NHDeNBO2s5+rPi0k8mN3ipNf7BUN2nSxGFxjiaO4fXll19auMD58+e7fv36ueOOO45DlURABEQgbQhISKfNqVZHRSC5CGBJ9S4IV155ZSYXCXqCYMQ/OBjvGXGIKMRfGbGJP693N0BkknDF+OKLL0zgMjEOEU1CLO611145irSB3zHWWCJV4MZBQtCyNDmuE0TdQBAH/bgtU4L+ECEEMezLJ0pI+fLlrQ/eag1DLNuXXHJJRET7dhKqD1cNOMIlKKQZDAT/DzYZUY7rCi4kiGcs/tSLQFcSAREQgXQiICGdTmdbfRWBJCKAAEYk80Kwxkr4TOPSQL5atWq5zZs3m2UWiykCkUSkCZ8QgVhfiRGNi0NuE+UjonEnoW5cLrzlFtGOXzIiFx/sY489NrfVZHmcry+YyYtqv422IKorVKiw2yCBQQQv2uoHGv64rEL3wZsJmrhzIKjhm1V+X6beRUAERCDVCEhIp9oZVX9EIMUIYNElPjPW02gJ4YiIw+rKJMMbbrjBLMKHHHKICbxvv/3WVapUabdDsWgjCONddCVcAOKUiX2IckQ10SvCCZ/rNWvW5JuQDtcX63/aiqtHODFYgUNuEsdiwZeIzg09HSMCIpAqBHK/WkCqEFA/REAEiiQBLKX4FyOEiYKB9RV/Yf9iPyLaW2VZ2huXCvyAmfDHyoLkRewFE77VuETgK83Kij4hhhGHYcus3x9+x0rOJD5EOlZujg++ENG0nwmRWHxJLFjCBEfy+eTr9f8n+h2hy8qI+H6H+8vAgygduHDgCx1vIj8TGrFKyxIdLzXlEwERSEUCEtKpeFbVJxFIIgKEekMsB19sw1qMNRrf3mHDhrnnnnvOJgmSj0luiDi2M3GQhJ/yyJEjHRPfEIfkI/IEcaKDCRGIX/C8efNcr1693GeffWb5ie983XXXWRi6YP5onxG/WHgpGz/ssDsFxyDWsYrjs034OBKuJPgRE+qOPtBGxDgxo8OJMhG39IXYzuQlQgZiPycJi3uNGjXMPWbEiBFmIadMQgjilkIEE1xQiNwRb6L/DA5wqwkOCuI9XvlEQAREIFUIZDbVpEqv1A8REIGkIRDNZQMR+vDDD1v4tQ4dOpjoJLpE3759TcCxGAjCGbFJuDdCtOH+cdlll1ksZtwVEIbeah2EgZX6wgsvtFB3hH876aSTrCws1VhX41nimvJx2aAsJtlFS6xqSBQQJuKxgAz1EFUEf2nEN9E2sH4jYlu1arVbEbSfRVMQ63Xr1rV+s9AK4pcoHfEmGOE7jjX8nnvusSXZscbTTwYVWPBZxCUniYmJlEVElRkzZkTiWuekDOUVAREQgVQgICGdCmdRfRCBJCSQVag0LLlYb3HbKFu2rHvkkUfM0syiIsSDRmASmq169eqRBULYNnr0aNe1a1ezlBKO7vzzzzc3j0aNGmWyuOL2cdNNN1kdxIDGPYOV+xDwLFpC/Vm5LCCksYQjaCkrVqItuE9QFhMSKRdhjIBngRisuiMzrOjEjcYFJLikOEK3TZs25h5CG1n0BRaE16M86qW8cKQM/sfiHhwQIJi7detmkUUoC6s9fcYCT+SSoJ84VnDcT/zKhdH6Rh24rXAOw/VHy69tIiACIpCqBPbIeCz3P2e9VO2l+iUCIlCoBJiUR0zoatWqmUgr1MaochHIAQFCL/I0xC/6k4NDlVUERCANCMhHOg1OsrooAiIgAiIgAiIgAiKQeAIS0olnqhJFQAREQAREQAREQATSgICEdBqcZHVRBERABERABERABEQg8QQkpBPPVCWKgAiIgAiIgAiIgAikAQEJ6TQ4yeqiCIiACIiACIiACIhA4glISCeeqUoUAREQAREQAREQARFIAwKKI50GJ1ldFAEREIFkI8DqlpMmTbKVE9u3bx9ZCj7Z+qH2ioAIpDYBCenUPr/qnQgUaQIseb1q1Sr3zDPPRJaaZoVBFiJhJUAWHGF1QqXEEPjzzz9tafThw4dbgXXq1LHVIIOLz7CADOejZs2a7pxzzrHVGxNTe85K4bsxZcoUW/0RIa0kAiIgAkWRgIR0UTwrapMIpAGBbdu22cp6n332ma1W6NeGYkW9jz76yFYvvP322yMrF6YBknzvIkuSr1y50r3wwgs2cPn1119dgwYNMi3x/cMPP7i3337bFS9e3J111lmFJqTzHYYqEAEREIEEEJCQTgBEFSECIpAzAr///ru75ppr3Pjx491VV11ly1f7ZaoRd4i5P/74w5bVzlnJyh0PgVKlStmy5F999ZVjyfCrr746yyXR4ylTeURABEQgHQlISKfjWVefRaCQCSDgFixY4Fh++frrr3eHHXaY23PPPa1VuB/89ttvDkFdrFixTC1l29q1a92oUaNsyfGKFSu6Jk2auLPPPtvhEhJMP/30k/vggw/cAw88YPs6duzoDjjgAPfSSy+ZcOQY6hk5cqRbv369u/zyy13p0qUjReBagNjHzQQXCO9iguWc/Pjvvv766+Z+0qFDB3fuuefaZ1/As88+6zZs2OA6derk/v77b/fYY4+5NWvWuAsvvNC1bt3aIWaDLhWUC5fp06e7YcOGuYMPPtg1bNjQ1ahRw5188smR+nft2mXuMM8995xZl1l2HQZnnnmm84MR34ZY7wceeKBr1KiRmzVrllu0aJH79ttv3eGHHx4ru8NfmTb36NHDXXTRRRF/Zc4VZbz22mvulltuiSz/TvthdOmll9qAaOjQoW7dunWuZcuW9jrqqKPc6tWr7TswYsQIs3oPGDDAlpD33wPfGLhs3rzZ4Y4yY8YMV65cOde2bVtXtWpVx9OLYKKd9Ofuu+92e+21l3GBd5kyZSLZvvjiC/f888/bd+Gyyy5zs2fPdu+88465EnXp0sUde+yxkbz6IAIiIALZEZCQzo6Q9ouACCScwF9//WWuBYceeqi5EATF09577+14IXqDCWE8ePBgE9HffPONWa1XrFhhghbBi1BGIJLIi/jFsv35559bebg0UA8Ci+NJCFwE3yeffOJ27txp2/wfLOKIMnyFcYnw6d1333XXXnut27FjhwnfffbZxy1dutSE9IMPPhhxk6BchPySJUsc4g2RjDhnIICYf+ONN0wg77HHHsaCNiDIKZf8lPvxxx+7M844w0Qqbhbbt2931MGxuMaQl37hinHbbbeZ2I1XTB955JGuefPm7umnn3avvPJKllZpWMybN881btzYY7B3RO7WrVvd4sWL3S+//BLZh7sOYpV2wY620ne2I7LbtWtndSJ86SsDCvrG4KBSpUqRcvgwc+ZME/2cMwT/8uXL3fvvv2/9veSSSyKDB8Q25cKZAQxcEeuweuSRR1yVKlVsGwMRvjeUt2zZMhPS3333nbm4sE9JBERABHJCQEI6J7SUVwREICEESpQoYaL2ySefdGXLljWLMhZYBHS0hOAdM2aMTT7Dwov1FWs1wgdhizgrX768q127tomy0aNHmzi+5557XPXq1c1y+fPPP5vofuutt6JVEdc2RF/37t1d586dzVKMcEdkMinuiSeeMMs3whQRR0LkYvnG6o5VFCE/d+5cN2jQIBNzxx9/vPUZkYmlFzEPk1IZ1mrKQGhu2bLFYfnlNWTIEPMfx5KPwP7Xv/5lAhbrOJZ3LPSnnXZapP6sOsWAgsmEEydONFaIXcR1ohJtP/XUU20yo7cI48qDwEbY3nzzzdYHniQgfJlQ2Lt3bxO2nh9tYbAFb/p20EEHmXC/99573bhx48wqzfeHJwuIaLgxqOIdkc/ESb43N910k+O8+4EW5TLIql+/vrUPf3AmtmIpVxIBERCBnBCQkM4JLeUVARFICAEEDYIKiyLCFOsrwo7/Eck8vidqh7dUY2HGwotAuuKKK0xQYcVELCHSpk6daq4DiGaELaIS8dqzZ08TmwgztiMW8yKkP/zwQ7NsItYQ8r4NJ5xwgpWPtZS2IvhIiLxevXqZdZw+khBriG3y4rrB4IG+IexggpsG22gzAwj8yb3FlnwVKlRwuCBgsWc7Fl9cUrC8Yu2GXawBiTUg8AeRiusKvF599VXzVw/sztNHXE5uuOEGV7du3ciERVwxfD30ge8BfYATg4PJkyfbOQ0Kac4v3xGOJS8DCgZF999/vw0A+J5s2rTJbdy40QT66aefHnGD4Zwz2MAPH4s1wt4n8lEuIppylURABEQgNwQkpHNDTceIgAjkiQBCCZcJXAKwRiIAETqPPvqow7cYAY24mjBhgoktRCbWRXxZsb4GhRZiGvHq3UWwGmPZxTc26DfNMYj1vCQspljB8VkOJtqAaMP6HHQDwcqOlTfobnHMMcdYOxCEHEeaM2eO9Rkm3heb7XBACJJwi8C1AcGMa0gwUQ5uHrQhJwkmuDwg7nFzgHGiEgI13Pejjz7a+s52+uUFLOcFVgwccLPgiYVPDArI6885/2N1R1jjTgJvfM/hycDEl+mPp0zawvcjmCiTOn25wX36LAIiIALxEsjbXSXeWpRPBERABEIEEImISsQVE+oQRDfeeKO5MhCejUloiGqsmlhlmWiIJZJXtMRkNvIgrhCW+TFpjLp9HdHagMhG7CLcSIi0sFBD6IW3IQLZjoU4VqJeOOAGEivhE4xgjNciTTm0tVOGuww+1rhe4O6RiBSt7+F+R6snOBCJtp9tsAoKZgZSHIcIj5YQzQzWsEIriYAIiEAiCeh5ViJpqiwREIEcE0BcIaoRf7gr8Cif6A64YTBZzVtteecRPYKJz+EXUTHwc/X5sdAmOtFWrObhuv3/TIw75ZRTclwt5VJGcMJerELuvPPOmAwGDhy4WySLWOUEt+NvzaAGdxO4J0Py55m2+s88jfDnIvjO0w7chuIR8snQd7VRBESg6BCQkC4650ItEYG0IYAYxgrrRXGw434f4tq7OWCpxcKM6wFROMjjE4KJx/e8SLgpIJiIluG3sd2Xy2efcP1AvGPFxS3CCzLyImqDx3MMETNuvfXWqG3gGPL7Mnwd8bzjXsGxCxcu3K1vcGLfEUccYSHq8AdGMGbFIJ46g3nw6WaQQpQQfMixfAcTrhgwxSru+8c7bSuISBe+TtoEi2nTppnln3OHWwi+zwzEiCwSPI/k9+clyIvtSiIgAiKQCAJy7UgERZUhAiKQIwKEiyPcGwINgYivKgmxg/UQX2j8kAkzh4DD/YAJfbh84OrBdu9vS9g0JuERi5rYwpT573//2+JCUzaT8xBfn376qcU7Dooy6sTXFl9tyqYdTAqkvL59+5rvLXl8Ov/8883vGgsuvsrHHXecWdMR3Ux2o/24RlB/ThIuBwhB4iO/+OKLkbB4WIfxjWYQQfi7UhmTLYkOQh+YnEf/GHAQIQPXFpgwyS8nrh2+nYSdI4oIEx6j+VrTpzvuuMPBgJjTuLnwxIDIKExwzK+EqwxhCDm/nEfOFXHEibiBSxD95ykG+5k4OTIjLjgDEwZJnI8vv/zSBmB8D8inJAIiIAKJJCAhnUiaKksERCAuAohVQrkhcghdhhgm4feKewZimAU+EG0khCEh0Jh0iO808YzxiyUhsvGBRdAhpMnLJEXyEFKNsrFaMoENYYUVM5iI3YyFl5B5zzzzjEXjIJpE7YxQemE3B9w2qB/rbatWrSI+ufSHdtNeJgzmNCFSmUSJSwuLhCAe6QeWYsK+4c7B/3369LF+sxAMi6B4VxDqZkDw1FNP5bTqSH7qYoVDBDmDnHBCNBN3GqHOeYI71n+WGGfwk18JKzmRTJhAivWbejmHcGYgQaLvWNKbNWtmAyBiW5NoJwL7xBNPtBjVtlF/REAERCCBBCSkEwhTRYmACMRHAMsgQpCFMXBnwLqLlRVBiqW1TsZiKlhfsTb6hNAj9jBiCRHOyogkxB2r9BFH2kfHwEL63nvvmXUV6zZCFf9hBDPvwYQYw10Dsc0xlStXtsVdiBqCYEakBie2URexq8mL8KbdJUuWNCs5Lga0k8RgAKGLyAsnQrZh1fXlYnWnXlbuo2wEMfUSW7pevXomBCmDbazah+UVyzT8SFiyL7jggmxD31EPZVA/YpT/gwmrN+EHsfziTuPbRx5vhe/ataudJwYSvFatWmVW9GA/6TsDneA2ymAwwJMGxHCwbj5zHtjHeSDh1oPFnxUV+T4QN5roHJz/bt26mZU++P0olfF94Zzg3sHESc4LVmnCINJ2zhGJ7xh5wwMq26k/IiACIpBDAntkXGz+E38phwcquwiIgAjESwC/ZiyLWDO9oIn32ETlw58XUY2lmwVREOBKIpAdAQZ2/fv3t4FRdnm1XwREIP0IaLJh+p1z9VgEREAEREAEREAERCABBCSkEwBRRYiACIiACIiACIiACKQfAQnp9Dvn6rEIpCUB/H1xK8HHGd9bJREQAREQARHIKwFNNswrQR0vAiKQFASYmEZYNF5KIiACIiACIpAIArJIJ4KiyhABERABERABERABEUg7AhLSaXfK1WEREAEREAEREAEREIFEEJCQTgRFlSECIiACIiACIiACIpB2BCSk0+6Uq8MiIAIiIAIiIAIiIAKJICAhnQiKKkMEREAEREAEREAERCDtCEhIp90pV4dFQAREQAREQAREQAQSQUBCOhEUVYYIiIAIiIAIiIAIiEDaEZCQTrtTrg6LgAiIgAiIgAiIgAgkgoCEdCIoqgwREAEREAEREAEREIG0IyAhnXanXB0WAREQAREQAREQARFIBAEJ6URQVBkiIAIiIAIiIAIiIAJpR0BCOu1OuTosAiIgAiIgAiIgAiKQCAIS0omgqDJEQAREQAREQAREQATSjoCEdNqdcnVYBERABERABERABEQgEQQkpBNBUWWIgAiIgAiIgAiIgAikHQEJ6bQ75eqwCIiACIiACIiACIhAIghISCeCosoQAREQAREQAREQARFIOwIS0ml3ytVhERABERABERABERCBRBCQkE4ERZUhAiIgAiIgAiIgAiKQdgQkpNPulKvDIiACIiACIiACIiACiSCwVyIKURkiIAIikB2B33//3e3cudP9+OOP2WXVfhEoMgT++OOPItMWNUQERKDoEZCQLnrnRC0SgZQj8M9//tMhSBYtWuTWrVuXcv1Th1KXwAEHHOD22ku3ytQ9w+qZCOSNwB7/LyPlrQgdLQIiIAJZE/j111/dmjVr3A8//OB0ycmalfYWLQJ77723O/PMM90+++xTtBqm1oiACBQJAhLSReI0qBEiIAIiIAIiIAIiIALJRkCTDZPtjKm9IiACIiACIiACIiACRYKAhHSROA1qhAiIgAiIgAiIgAiIQLIRkJBOtjOm9oqACIiACIiACIiACBQJAhLSReI0qBEiIAIiIAIiIAIiIALJRkBCOtnOmNorAiIgAiIgAiIgAiJQJAhISBeJ06BGiIAIiIAIiIAIiIAIJBsBCelkO2NqrwgkEQFWM9TKcEl0wtRUEfgvAVYhVcz39Pg67Nq1y/3999/p0dl86KXiSOcDVBUpAiLwHwLciPfYYw/hEAERSDIC+u0m2QnLQ3N1rvMAL+NQCem88dPRIiACIiACIiACIiACaUpArh1peuLVbREQAREQAREQAREQgbwRkJDOGz8dLQIiIAIiIAIiIAIikKYEJKTT9MSr2yIgAiIgAiIgAiIgAnkjICGdN346WgREQAREQAREQAREIE0JSEin6YlXt0VABERABERABERABPJGQEI6b/x0tAiIgAiIgAiIgAiIQJoS+P8YSCn5R0HIuwAAAABJRU5ErkJggg==;" vertex="1" parent="1">
          <mxGeometry x="100" y="70" width="522.38" height="280" as="geometry" />
        </mxCell>
      </root>
    </mxGraphModel>
  </diagram>
</mxfile>
